<svg width="31" height="32" viewBox="0 0 31 32" fill="none" xmlns="http://www.w3.org/2000/svg">
<g filter="url(#filter0_bd_59_1581)">
<path d="M17.7495 21.4993V16.9992C17.7495 16.8003 17.6704 16.6096 17.5298 16.4689C17.3891 16.3283 17.1984 16.2492 16.9995 16.2492H13.9995C13.8005 16.2492 13.6098 16.3283 13.4691 16.4689C13.3285 16.6096 13.2495 16.8003 13.2495 16.9992V21.4993C13.2495 21.6982 13.1704 21.889 13.0298 22.0296C12.8892 22.1703 12.6984 22.2493 12.4995 22.2493L8.00009 22.2499C7.90159 22.2499 7.80406 22.2305 7.71305 22.1929C7.62205 22.1552 7.53936 22.0999 7.4697 22.0303C7.40005 21.9606 7.3448 21.878 7.3071 21.787C7.2694 21.696 7.25 21.5984 7.25 21.4999V12.8318C7.25 12.7273 7.27183 12.6239 7.3141 12.5284C7.35637 12.4328 7.41814 12.3471 7.49545 12.2769L14.9949 5.45797C15.133 5.33244 15.3129 5.26288 15.4995 5.26288C15.686 5.26287 15.8659 5.33242 16.004 5.45793L23.5045 12.2768C23.5818 12.3471 23.6436 12.4328 23.6859 12.5284C23.7282 12.624 23.75 12.7273 23.75 12.8318V21.4999C23.75 21.5984 23.7306 21.696 23.6929 21.787C23.6552 21.878 23.6 21.9606 23.5303 22.0303C23.4606 22.0999 23.378 22.1552 23.2869 22.1929C23.1959 22.2306 23.0984 22.2499 22.9999 22.2499L18.4994 22.2493C18.3005 22.2493 18.1097 22.1703 17.9691 22.0296C17.8285 21.889 17.7494 21.6982 17.7495 21.4993Z" fill="#C991E5" fill-opacity="0.26" stroke="#A657CD" stroke-width="2" stroke-linecap="round" stroke-linejoin="round"/>
</g>
<defs>
<filter id="filter0_bd_59_1581" x="-16.5" y="-18" width="64" height="64" filterUnits="userSpaceOnUse" color-interpolation-filters="sRGB">
<feFlood flood-opacity="0" result="BackgroundImageFix"/>
<feGaussianBlur in="BackgroundImage" stdDeviation="10"/>
<feComposite in2="SourceAlpha" operator="in" result="effect1_backgroundBlur_59_1581"/>
<feColorMatrix in="SourceAlpha" type="matrix" values="0 0 0 0 0 0 0 0 0 0 0 0 0 0 0 0 0 0 127 0" result="hardAlpha"/>
<feOffset dy="2"/>
<feGaussianBlur stdDeviation="3"/>
<feColorMatrix type="matrix" values="0 0 0 0 0.65098 0 0 0 0 0.341176 0 0 0 0 0.803922 0 0 0 0.3 0"/>
<feBlend mode="normal" in2="effect1_backgroundBlur_59_1581" result="effect2_dropShadow_59_1581"/>
<feBlend mode="normal" in="SourceGraphic" in2="effect2_dropShadow_59_1581" result="shape"/>
</filter>
</defs>
</svg>
