<svg width="35" height="34" viewBox="0 0 35 34" fill="none" xmlns="http://www.w3.org/2000/svg">
<g opacity="0.5" filter="url(#filter0_bd_59_1597)">
<path d="M16.1413 20.0711C18.942 20.8216 21.8208 19.1595 22.5712 16.3588C23.3216 13.5581 21.6596 10.6794 18.8589 9.92893C16.0582 9.17848 13.1794 10.8405 12.429 13.6412C11.6785 16.4419 13.3406 19.3207 16.1413 20.0711Z" stroke="#A657CD" stroke-width="2" stroke-linecap="round" stroke-linejoin="round"/>
<path d="M25.6631 16.4109L26.9716 15.261C27.0566 15.1871 27.1242 15.0954 27.1698 14.9924C27.2154 14.8894 27.2377 14.7776 27.2352 14.665C27.2145 14.038 27.1328 13.4145 26.9914 12.8033C26.9647 12.6941 26.9143 12.5922 26.8437 12.5047C26.7731 12.4172 26.684 12.3465 26.5829 12.2974L25.0198 11.5245L24.2699 10.2255L24.3821 8.4854C24.3901 8.37328 24.3734 8.26076 24.3329 8.15588C24.2925 8.05099 24.2294 7.95633 24.1482 7.87865C23.6895 7.45059 23.1904 7.06815 22.6577 6.73672C22.5615 6.67826 22.4535 6.64171 22.3415 6.62967C22.2295 6.61762 22.1163 6.63038 22.0098 6.66703L20.3598 7.22521L18.9109 6.83698L17.761 5.52858C17.6871 5.44359 17.5954 5.37592 17.4924 5.33036C17.3894 5.2848 17.2777 5.26248 17.1651 5.26498C16.5381 5.28567 15.9146 5.3673 15.3034 5.50869C15.1942 5.53534 15.0922 5.58578 15.0047 5.6564C14.9173 5.72701 14.8465 5.81607 14.7974 5.91721L14.0246 7.48023L12.7255 8.23027L10.9855 8.11801C10.8734 8.10993 10.7609 8.1267 10.656 8.16713C10.5511 8.20757 10.4564 8.27066 10.3788 8.3519C9.95066 8.81051 9.56818 9.30967 9.23672 9.84234C9.17826 9.9386 9.14172 10.0466 9.12968 10.1585C9.11764 10.2705 9.1304 10.3838 9.16705 10.4902L9.72523 12.1403L9.337 13.5891L8.02859 14.739C7.94361 14.8129 7.87594 14.9046 7.83038 15.0076C7.78482 15.1106 7.7625 15.2224 7.76499 15.3349C7.78566 15.962 7.86728 16.5855 8.0087 17.1967C8.03535 17.3059 8.08579 17.4079 8.1564 17.4953C8.22702 17.5828 8.31607 17.6536 8.4172 17.7026L9.98031 18.4755L10.7303 19.7745L10.618 21.5146C10.6099 21.6268 10.6267 21.7393 10.6671 21.8442C10.7076 21.949 10.7706 22.0437 10.8519 22.1214C11.3105 22.5495 11.8096 22.9319 12.3423 23.2633C12.4385 23.3218 12.5465 23.3583 12.6585 23.3704C12.7704 23.3824 12.8837 23.3696 12.9902 23.333L14.6403 22.7748L16.0892 23.163L17.2391 24.4716C17.313 24.5565 17.4047 24.6242 17.5077 24.6698C17.6107 24.7153 17.7224 24.7377 17.835 24.7352C18.462 24.7145 19.0855 24.6329 19.6967 24.4914C19.8059 24.4648 19.9079 24.4144 19.9953 24.3437C20.0828 24.2731 20.1536 24.1841 20.2026 24.0829L20.9755 22.5198L22.2745 21.7698L24.0147 21.882C24.1268 21.8901 24.2393 21.8733 24.3442 21.8329C24.4491 21.7925 24.5437 21.7294 24.6214 21.6481C25.0495 21.1896 25.432 20.6904 25.7634 20.1578C25.8219 20.0615 25.8584 19.9536 25.8704 19.8416C25.8825 19.7296 25.8697 19.6164 25.8331 19.5099L25.2748 17.8598L25.6631 16.4109Z" stroke="#A657CD" stroke-width="2" stroke-linecap="round" stroke-linejoin="round"/>
</g>
<defs>
<filter id="filter0_bd_59_1597" x="-14.5" y="-17" width="64" height="64" filterUnits="userSpaceOnUse" color-interpolation-filters="sRGB">
<feFlood flood-opacity="0" result="BackgroundImageFix"/>
<feGaussianBlur in="BackgroundImage" stdDeviation="10"/>
<feComposite in2="SourceAlpha" operator="in" result="effect1_backgroundBlur_59_1597"/>
<feColorMatrix in="SourceAlpha" type="matrix" values="0 0 0 0 0 0 0 0 0 0 0 0 0 0 0 0 0 0 127 0" result="hardAlpha"/>
<feOffset dy="2"/>
<feGaussianBlur stdDeviation="3"/>
<feColorMatrix type="matrix" values="0 0 0 0 0 0 0 0 0 0 0 0 0 0 0 0 0 0 0.2 0"/>
<feBlend mode="normal" in2="effect1_backgroundBlur_59_1597" result="effect2_dropShadow_59_1597"/>
<feBlend mode="normal" in="SourceGraphic" in2="effect2_dropShadow_59_1597" result="shape"/>
</filter>
</defs>
</svg>
