<svg width="223" height="223" viewBox="0 0 223 223" fill="none" xmlns="http://www.w3.org/2000/svg">
<mask id="mask0_6_2520" style="mask-type:alpha" maskUnits="userSpaceOnUse" x="0" y="0" width="223" height="223">
<circle cx="111.5" cy="111.5" r="111.5" fill="white"/>
</mask>
<g mask="url(#mask0_6_2520)">
<path d="M87.0668 109.312C87.1338 109.511 87.2584 109.686 87.4249 109.815C87.5914 109.943 87.7923 110.02 88.0022 110.034C88.2121 110.049 88.4217 110.001 88.6045 109.897C88.7872 109.793 88.935 109.637 89.0291 109.449C89.1232 109.261 89.1595 109.049 89.1333 108.841C89.1071 108.632 89.0196 108.436 88.8819 108.277C88.7442 108.118 88.5624 108.004 88.3596 107.948C88.1567 107.892 87.9418 107.897 87.742 107.963C87.6089 108.008 87.4859 108.078 87.38 108.169C87.274 108.261 87.1872 108.373 87.1245 108.498C87.0618 108.623 87.0244 108.76 87.0145 108.899C87.0046 109.039 87.0224 109.179 87.0668 109.312Z" fill="white"/>
<g clip-path="url(#clip0_6_2520)">
<path d="M94.3163 92.7333C95.8364 92.7333 97.0687 91.3835 97.0687 89.7185C97.0687 88.0534 95.8364 86.7037 94.3163 86.7037C92.7962 86.7037 91.5639 88.0534 91.5639 89.7185C91.5639 91.3835 92.7962 92.7333 94.3163 92.7333Z" fill="#5E2929"/>
<path d="M123.983 87.3255C125.507 87.3255 126.734 88.6737 126.734 90.3403C126.734 92.007 125.502 93.3518 123.983 93.3518C122.465 93.3518 121.231 92.0036 121.231 90.3403C121.231 88.677 122.463 87.3255 123.983 87.3255Z" fill="#5E2929"/>
<path d="M171.571 203.395C172.046 211.082 172.523 218.768 173.002 226.454H142.461C143.416 217.354 144.37 208.254 145.324 199.154L169.672 185.91C170.828 191.656 171.211 197.593 171.571 203.395Z" fill="#EFEADC"/>
<path d="M145.324 199.157C144.371 208.257 143.417 217.357 142.461 226.457H132.662C131.407 202.207 130.153 177.956 128.899 153.702C128.786 151.401 128.667 149.098 128.542 146.793C130.683 148.246 132.987 149.446 135.406 150.371C139.461 151.967 143.39 153.863 147.16 156.043C155.116 160.637 162.539 166.953 166.383 175.423C167.907 178.793 168.944 182.313 169.672 185.911L145.324 199.157Z" fill="#EFEADC"/>
<path d="M76.678 199.157C77.6327 208.257 78.5868 217.357 79.5404 226.457H49C49.4774 218.771 49.9541 211.084 50.4304 203.399C50.7892 197.597 51.1684 191.66 52.3296 185.917C60.4446 190.333 68.5607 194.746 76.678 199.157Z" fill="#EFEADC"/>
<path d="M76.678 199.157C68.563 194.745 60.4469 190.331 52.3296 185.913C53.0541 182.315 54.0901 178.791 55.6186 175.424C59.4595 166.958 66.894 160.642 74.8414 156.045C78.6123 153.866 82.542 151.972 86.5975 150.379C89.2923 149.348 91.8423 147.976 94.1843 146.296L94.4027 146.597C94.2808 148.966 94.1584 151.334 94.0354 153.702C92.7816 177.953 91.5273 202.205 90.2724 226.457H79.5404C78.5868 217.357 77.6327 208.257 76.678 199.157Z" fill="#EFEADC"/>
<path d="M128.542 146.798C128.66 149.098 128.779 151.401 128.899 153.707C125.769 156.725 122.145 159.189 118.184 160.996C114.226 162.777 108.275 162.472 104.385 160.741C100.552 159.007 97.0523 156.622 94.0404 153.694C94.1623 151.324 94.2848 148.956 94.4078 146.589L94.1894 146.287C94.9681 145.729 95.7518 145.124 96.5592 144.457C97.7916 143.446 99.0086 142.352 99.7484 140.944C100.097 140.279 100.33 139.561 100.436 138.818L100.635 138.847C106.374 143.092 114.226 143.766 120.493 140.313C120.911 140.082 121.322 139.84 121.724 139.577C121.846 140.05 122.022 140.508 122.247 140.942C122.986 142.351 124.203 143.444 125.434 144.455C126.504 145.337 127.519 146.105 128.542 146.798Z" fill="#FBBF94"/>
<path d="M121.47 137.764C121.483 138.377 121.569 138.988 121.724 139.582C121.322 139.845 120.911 140.087 120.493 140.318C114.23 143.771 106.374 143.097 100.635 138.852L100.436 138.824C100.538 138.133 100.557 137.434 100.491 136.739C100.366 135.222 99.9261 133.692 99.4758 132.273C102.787 133.507 106.279 134.295 109.802 134.407C114.132 134.543 118.555 133.395 122.633 131.634C122.025 133.539 121.41 135.699 121.47 137.764Z" fill="#F7A17C"/>
<path d="M64.1314 104.499C64.8322 107.196 66.8787 109.418 69.3129 110.795C70.7382 111.579 72.2686 112.157 73.8579 112.511C75.791 112.966 77.174 113.016 78.2827 114.838C79.3589 116.605 80.5669 118.29 81.8967 119.877C82.7126 120.854 83.5731 121.792 84.4781 122.691C85.8226 125.07 86.8184 127.628 87.4354 130.288C87.8315 131.998 88.0634 133.793 87.6673 135.512C87.3287 136.963 86.4705 138.35 85.206 139.108C81.4092 140.098 77.1926 139.241 73.8071 137.199C69.3687 134.516 66.0323 130.2 65.0319 125.189C64.6263 123.083 64.4864 120.935 64.6155 118.795C64.8153 115.131 64.9354 111.717 64.3261 108.05C64.0942 106.66 63.8182 105.266 63.5931 103.869L63.9858 103.802C64.0163 104.036 64.0722 104.269 64.1314 104.499Z" fill="#C991E5"/>
<path d="M112.369 108.535C113.707 108.535 114.79 110.281 114.79 112.437C114.79 114.592 113.707 116.335 112.369 116.335C111.032 116.335 109.949 114.589 109.949 112.437C109.949 110.285 111.032 108.535 112.369 108.535Z" fill="white"/>
<path d="M133.065 78.8961C133.151 79.523 132.835 80.2224 132.247 80.4583C131.211 80.8762 130.158 79.8769 129.243 79.5432C128.145 79.1497 127.016 78.8448 125.869 78.6315C124.515 78.3754 122.599 78.4192 121.405 77.6996C120.821 77.3508 120.423 76.5992 120.699 75.979C120.997 75.3049 121.341 75.0404 122.054 74.8617C123.479 74.5045 125.524 75.0134 126.93 75.3572C127.888 75.6146 128.828 75.9367 129.742 76.3211C130.541 76.6312 131.35 76.8115 132.059 77.344C132.572 77.7249 132.982 78.2709 133.065 78.8961Z" fill="#5E2929"/>
<path d="M99.9396 75.979C100.216 76.5992 99.8161 77.3508 99.2321 77.6996C98.0471 78.4192 96.1174 78.3737 94.7683 78.6315C93.6211 78.845 92.4929 79.1499 91.3947 79.5432C90.4806 79.8803 89.4277 80.8762 88.3918 80.4583C87.8027 80.2224 87.4878 79.523 87.5725 78.8961C87.6571 78.2692 88.0718 77.7165 88.5796 77.344C89.2889 76.8115 90.1031 76.6312 90.8987 76.3211C91.8123 75.9367 92.7511 75.6146 93.7087 75.3572C95.117 75.0201 97.1618 74.5045 98.5871 74.8617C99.2981 75.0404 99.6417 75.3134 99.9396 75.979Z" fill="#5E2929"/>
<path d="M145.314 129.248C146.39 134.809 151.069 138.414 156.78 137.92C156.846 137.92 156.912 137.908 156.977 137.9C152.592 139.236 148.068 139.712 143.45 139.9C139.909 140.047 136.372 139.563 132.86 139.076L126.638 138.22C125.04 137.998 123.106 137.432 121.47 137.764C121.41 135.699 122.025 133.539 122.639 131.634C124.339 130.9 125.993 130.064 127.592 129.132C128.166 128.795 128.733 128.458 129.285 128.092C134.525 124.693 138.93 120.163 142.173 114.838C143.211 113.134 144.489 112.984 146.236 112.593C146.234 114.399 146.097 116.201 145.826 117.986C145.312 121.731 144.591 125.539 145.314 129.248Z" fill="#A657CD"/>
<path d="M99.4826 132.273C99.9261 133.692 100.366 135.217 100.498 136.739C96.7427 135.742 92.7641 135.982 89.1569 137.423C88.2749 137.772 87.4946 138.296 86.6279 138.642C86.1656 138.826 85.6918 138.98 85.2094 139.103C86.4739 138.345 87.3338 136.958 87.6706 135.507C88.0667 133.797 87.8399 132.002 87.4387 130.283C86.8218 127.623 85.826 125.065 84.4815 122.686C86.5179 124.71 88.7605 126.517 91.1729 128.079C91.7298 128.439 92.2969 128.785 92.8657 129.118C94.978 130.354 97.1915 131.409 99.4826 132.273Z" fill="#A657CD"/>
<path d="M66.5402 96.9952C64.4733 98.5018 63.5846 101.271 63.9858 103.797L63.5931 103.864C63.2122 101.582 62.9279 99.2904 63.065 96.9733C63.324 92.6238 65.0539 88.5203 66.4217 84.3815C67.5418 80.9901 68.4292 77.5269 69.0776 74.0158C69.6345 70.9824 69.6768 67.8513 70.7703 64.9915C72.871 59.454 74.8735 54.4607 79.9568 50.9033C82.3508 49.2391 85.0675 48.0911 87.933 47.5329C90.2047 47.088 92.5796 47.0071 94.7412 46.1089C96.7454 45.2764 98.4365 43.785 100.41 42.843C104.491 40.934 108.95 39.9618 113.458 39.9983C114.536 40.0031 115.613 40.0627 116.684 40.177C123.911 40.9572 130.702 44.0276 136.603 48.1598C142.268 52.1284 145.659 58.3822 148.211 64.7169C150.426 70.2056 151.729 76.397 155.528 81.0953C157.335 83.3333 159.814 84.6713 161.566 86.9379C164.874 91.2703 166.341 96.7228 165.652 102.122C165.313 104.683 164.487 107.189 164.467 109.774C164.443 112.934 166.302 114.54 167.532 117.164C168.814 119.973 169.249 123.092 168.787 126.142C167.84 132.181 163.213 137.265 156.978 137.898C156.914 137.898 156.848 137.912 156.782 137.919C151.065 138.412 146.392 134.816 145.315 129.247C144.594 125.539 145.315 121.726 145.823 117.983C146.094 116.198 146.231 114.395 146.233 112.59C146.24 110.901 145.973 109.223 145.442 107.619C145.021 106.876 144.609 106.127 144.228 105.367C141.936 100.788 140.327 95.9008 139.452 90.8594C138.976 88.0872 138.719 85.2696 138.045 82.5362C137.403 79.9342 136.352 77.6137 134.131 75.9892C132.269 74.6292 130.011 73.8557 128.398 72.1587C126.594 70.2645 125.285 67.2413 122.766 66.2841C120.396 65.3825 117.71 65.8139 115.284 65.7684C110.883 65.6875 106.362 65.2191 102.448 63.2137C101.206 62.5769 100.057 61.7735 99.034 60.8257C98.5418 60.368 98.0825 59.8764 97.6595 59.3545C97.4174 59.0563 97.0112 58.1429 96.6439 58.0064C95.4945 57.5952 94.9833 60.6606 94.6989 61.3549C94.0302 62.9474 93.1781 64.4574 92.1598 65.8544C90.4044 68.2811 88.2665 70.3269 86.1556 72.4401C84.3241 74.2804 83.6402 75.8628 83.4117 78.4428C83.2069 80.7785 82.1912 83.0822 81.0893 85.1246C80.0008 87.1334 78.5349 88.8708 77.675 90.9807C77.2532 92.0051 76.9136 93.0611 76.6594 94.1388C76.4173 95.1634 76.4512 96.1341 76.2514 97.1351C76.1515 97.6406 75.8536 98.1462 75.3712 98.3602C74.8888 98.5742 74.2404 98.3922 74.0407 97.9136H74.0204C72.4021 95.6639 68.7966 95.3471 66.5402 96.9952Z" fill="#C991E5"/>
<path d="M99.4826 132.273C97.192 131.414 94.9784 130.363 92.8657 129.132C92.2935 128.795 91.7265 128.458 91.1729 128.092C88.7605 126.531 86.518 124.723 84.4815 122.7C83.5787 121.801 82.7183 120.863 81.9001 119.885C80.5702 118.297 79.3621 116.612 78.2861 114.843C77.1774 113.023 75.7944 112.971 73.8613 112.516C72.272 112.162 70.7416 111.585 69.3163 110.8C66.8821 109.424 64.8356 107.202 64.1348 104.504C64.0755 104.274 64.0264 104.038 63.9892 103.802C63.588 101.274 64.4767 98.5068 66.5436 97.0002C68.8 95.3521 72.4055 95.6689 74.0339 97.9355H74.0543C74.254 98.4141 74.9006 98.5927 75.3847 98.3821C75.8689 98.1714 76.1651 97.6692 76.265 97.1569C76.4647 96.1559 76.4342 95.1853 76.6729 94.1607C76.9272 93.0829 77.2668 92.0269 77.6886 91.0026C78.5485 88.8927 80.0144 87.1553 81.1028 85.1465C82.2048 83.104 83.2204 80.8004 83.4253 78.4647C83.6538 75.8847 84.3376 74.3023 86.1692 72.462C88.275 70.3488 90.418 68.3029 92.1733 65.8762C93.1917 64.4792 94.0437 62.9693 94.7125 61.3768C94.9968 60.6825 95.508 57.6171 96.6574 58.0283C97.0197 58.1597 97.4259 59.0731 97.6731 59.3764C98.096 59.8983 98.5553 60.3899 99.0476 60.8476C100.071 61.7953 101.219 62.5988 102.462 63.2355C106.375 65.2409 110.895 65.7094 115.298 65.7903C117.724 65.8358 120.412 65.4044 122.78 66.306C125.299 67.2632 126.607 70.2864 128.412 72.1806C130.025 73.8776 132.283 74.6511 134.145 76.011C136.366 77.6356 137.417 79.9561 138.058 82.558C138.736 85.2914 138.989 88.1091 139.465 90.8813C140.341 95.9227 141.95 100.81 144.242 105.389C144.623 106.149 145.034 106.906 145.456 107.641C145.986 109.245 146.253 110.923 146.246 112.612C144.501 112.998 143.223 113.153 142.184 114.857C138.941 120.181 134.536 124.711 129.295 128.111C128.74 128.471 128.173 128.817 127.602 129.15C126.003 130.083 124.349 130.918 122.649 131.653C118.572 133.412 114.148 134.562 109.818 134.425C106.286 134.295 102.794 133.507 99.4826 132.273ZM132.247 80.4583C132.835 80.2224 133.151 79.523 133.065 78.8961C132.979 78.2692 132.557 77.7165 132.049 77.344C131.34 76.8115 130.526 76.6312 129.732 76.3211C128.818 75.9367 127.878 75.6146 126.92 75.3572C125.514 75.0201 123.469 74.5045 122.043 74.8617C121.333 75.0404 120.989 75.3134 120.689 75.979C120.413 76.5992 120.811 77.3508 121.395 77.6996C122.58 78.4192 124.511 78.3737 125.859 78.6315C127.006 78.8448 128.134 79.1497 129.233 79.5432C130.158 79.8769 131.218 80.8762 132.247 80.4583ZM126.734 90.3403C126.734 88.6753 125.502 87.3255 123.983 87.3255C122.465 87.3255 121.231 88.6736 121.231 90.3403C121.231 92.007 122.463 93.3518 123.983 93.3518C125.503 93.3518 126.734 92.0019 126.734 90.3403ZM114.799 112.437C114.799 110.281 113.715 108.535 112.378 108.535C111.041 108.535 109.957 110.281 109.957 112.437C109.957 114.592 111.041 116.335 112.378 116.335C113.715 116.335 114.799 114.589 114.799 112.437ZM99.2253 77.6996C99.8093 77.3508 100.209 76.5992 99.9329 75.979C99.635 75.3049 99.2913 75.0404 98.5787 74.8617C97.1534 74.5045 95.1086 75.0134 93.7002 75.3572C92.7427 75.6146 91.8038 75.9367 90.8902 76.3211C90.0913 76.6312 89.2805 76.8115 88.5712 77.344C88.0634 77.7249 87.647 78.2709 87.564 78.8961C87.4811 79.5213 87.7942 80.2224 88.3833 80.4583C89.4192 80.8762 90.4721 79.8769 91.3862 79.5432C92.4844 79.1499 93.6126 78.845 94.7599 78.6315C96.1174 78.3754 98.0404 78.4209 99.2253 77.6996ZM97.0688 89.7117C97.0688 88.0467 95.8364 86.6969 94.318 86.6969C92.7997 86.6969 91.5657 88.0451 91.5657 89.7117C91.5657 91.3784 92.798 92.7266 94.318 92.7266C95.8381 92.7266 97.0688 91.3834 97.0688 89.7117Z" fill="#FBBF94"/>
<path d="M90.2724 226.454H132.662C132.573 224.709 132.483 222.968 132.391 221.23C118.41 221.035 104.477 219.544 90.7734 216.776C90.6064 220 90.4394 223.226 90.2724 226.454Z" fill="#EDEDED"/>
<path d="M118.184 160.996C114.226 162.777 108.275 162.472 104.385 160.741C100.552 159.007 97.0522 156.622 94.0404 153.694C92.9537 174.717 91.8664 195.741 90.7785 216.764C104.482 219.531 118.415 221.022 132.396 221.216C131.23 198.708 130.065 176.202 128.899 153.699C125.769 156.719 122.146 159.187 118.184 160.996Z" fill="white"/>
<path d="M128.679 99.0123C127.584 100.361 127.494 102.396 128.373 103.899C129.251 105.403 130.981 106.326 132.723 106.351C134.465 106.377 136.174 105.548 137.336 104.253C138.47 102.988 139.101 101.188 138.653 99.5516C137.566 95.5796 130.783 96.4289 128.679 99.0123Z" fill="#F7A17C"/>
<path d="M92.9198 99.3376C94.0167 100.686 94.1047 102.723 93.2279 104.225C92.3511 105.726 90.6177 106.651 88.8759 106.677C87.134 106.702 85.4244 105.873 84.2649 104.579C83.1307 103.313 82.4976 101.515 82.9479 99.8786C84.038 95.9049 90.8208 96.7542 92.9198 99.3376Z" fill="#F7A17C"/>
<path d="M115.069 98.5944C115.16 98.5122 115.215 98.3978 115.222 98.2759C115.208 98.1957 115.166 98.1228 115.105 98.0694C115.043 98.016 114.965 97.9854 114.883 97.9827C114.718 97.9847 114.555 98.0209 114.404 98.0889C113.393 98.4431 112.3 98.4964 111.259 98.2422C111.078 98.1843 110.889 98.1542 110.699 98.1529C110.603 98.1536 110.51 98.1812 110.429 98.2325C110.349 98.2838 110.284 98.3567 110.243 98.4428C110.219 98.5237 110.216 98.6097 110.236 98.692C110.255 98.7743 110.297 98.8499 110.355 98.9112C110.473 99.0337 110.616 99.1287 110.775 99.1893C112.124 99.796 114.023 99.7639 115.069 98.5944Z" fill="#F7A17C"/>
<path d="M113.167 100.101C113.032 100.107 112.9 100.06 112.801 99.9696C112.701 99.8792 112.641 99.7531 112.635 99.619C112.629 99.485 112.676 99.3539 112.767 99.2547C112.858 99.1554 112.985 99.0962 113.119 99.0899C113.786 99.0254 114.42 98.7736 114.949 98.3639C115.477 97.9542 115.878 97.4035 116.104 96.7759C116.33 96.1483 116.373 95.4696 116.226 94.8189C116.08 94.1683 115.751 93.5724 115.278 93.1007C114.998 92.8376 114.698 92.5959 114.382 92.3777C114.095 92.1745 113.818 91.9568 113.553 91.7256C112.767 90.9964 112.209 90.0578 111.944 89.0217C111.68 87.9855 111.72 86.8954 112.06 85.8813C112.082 85.8187 112.116 85.761 112.161 85.7116C112.206 85.6622 112.259 85.6221 112.32 85.5934C112.38 85.5648 112.445 85.5482 112.512 85.5447C112.578 85.5412 112.645 85.5508 112.708 85.5729C112.771 85.595 112.829 85.6293 112.878 85.6737C112.928 85.7181 112.968 85.7718 112.997 85.8317C113.026 85.8917 113.043 85.9567 113.046 86.023C113.05 86.0893 113.04 86.1557 113.018 86.2183C112.742 87.0444 112.71 87.9318 112.926 88.7753C113.142 89.6189 113.596 90.3831 114.235 90.9773C114.474 91.1852 114.724 91.381 114.983 91.5638C115.342 91.8119 115.682 92.0874 115.999 92.3879C116.608 92.995 117.032 93.7622 117.221 94.5999C117.41 95.4377 117.355 96.3116 117.064 97.1198C116.773 97.928 116.257 98.6372 115.577 99.1647C114.896 99.6922 114.079 100.016 113.221 100.099L113.167 100.101Z" fill="#F28657"/>
<path d="M74.4063 108.347H74.3826C74.3159 108.344 74.2505 108.328 74.19 108.299C74.1296 108.271 74.0753 108.231 74.0303 108.182C73.9854 108.133 73.9506 108.075 73.9279 108.013C73.9053 107.95 73.8953 107.884 73.8985 107.818C73.9188 107.361 73.2096 106.975 72.9032 106.837H72.8863C72.1922 106.513 71.3289 106.112 71.1004 105.217C70.9464 104.611 71.1681 104.066 71.3645 103.584C71.4592 103.375 71.5346 103.157 71.5896 102.934C71.742 102.192 71.2511 101.338 70.4606 100.989C69.7174 100.652 68.756 100.73 67.8893 101.181C67.7699 101.243 67.6306 101.256 67.502 101.216C67.3734 101.175 67.2661 101.086 67.2037 100.967C67.1413 100.848 67.1289 100.71 67.1692 100.582C67.2096 100.454 67.2993 100.347 67.4187 100.285C68.5596 99.6915 69.8512 99.6106 70.8753 100.066C72.0975 100.61 72.8321 101.931 72.585 103.138C72.5172 103.421 72.4237 103.698 72.3057 103.965C72.1482 104.351 72.0128 104.683 72.0856 104.976C72.1956 105.406 72.7915 105.684 73.3162 105.928L73.3332 105.937C74.6873 106.565 74.9379 107.341 74.9125 107.88C74.9027 108.007 74.8451 108.125 74.7513 108.212C74.6574 108.299 74.5343 108.347 74.4063 108.347Z" fill="#F28657"/>
<path d="M149.916 119.093C149.788 119.094 149.664 119.046 149.57 118.959C149.476 118.873 149.418 118.754 149.408 118.626C149.143 115.072 147.443 112.118 145.644 108.99L145.214 108.241C145.18 108.183 145.159 108.119 145.15 108.053C145.142 107.987 145.146 107.92 145.164 107.855C145.181 107.791 145.211 107.731 145.252 107.678C145.293 107.625 145.344 107.581 145.402 107.548C145.46 107.515 145.524 107.493 145.59 107.485C145.656 107.476 145.724 107.481 145.788 107.498C145.853 107.515 145.913 107.545 145.966 107.586C146.019 107.627 146.064 107.677 146.097 107.735L146.526 108.482C148.301 111.569 150.138 114.762 150.419 118.544C150.429 118.677 150.385 118.809 150.297 118.91C150.21 119.012 150.086 119.074 149.952 119.085L149.916 119.093Z" fill="#6A3650"/>
<path d="M79.5337 226.909C79.4076 226.91 79.2858 226.864 79.1919 226.78C79.0981 226.696 79.0389 226.581 79.0259 226.456L74.2726 181.124C74.2587 180.99 74.2989 180.856 74.3843 180.751C74.4697 180.646 74.5933 180.58 74.728 180.566C74.8627 180.552 74.9974 180.592 75.1024 180.677C75.2075 180.762 75.2744 180.885 75.2883 181.019L80.0415 226.351C80.0485 226.417 80.0424 226.484 80.0235 226.548C80.0046 226.612 79.9733 226.671 79.9313 226.723C79.8893 226.774 79.8375 226.817 79.7789 226.849C79.7202 226.881 79.6559 226.9 79.5895 226.907L79.5337 226.909Z" fill="#CBC9B7"/>
<path d="M76.7 199.676C76.6154 199.676 76.5322 199.654 76.4579 199.614L52.0977 186.365C52.0391 186.333 51.9875 186.29 51.9456 186.238C51.9037 186.186 51.8725 186.127 51.8537 186.063C51.8349 185.999 51.829 185.933 51.8361 185.866C51.8433 185.8 51.8634 185.736 51.8954 185.678C51.9275 185.62 51.9707 185.568 52.0227 185.527C52.0747 185.485 52.1344 185.454 52.1985 185.435C52.2625 185.416 52.3296 185.41 52.396 185.418C52.4624 185.425 52.5267 185.445 52.5852 185.477L76.9438 198.727C77.0426 198.781 77.1205 198.867 77.1653 198.969C77.2102 199.072 77.2194 199.187 77.1914 199.296C77.1635 199.405 77.1001 199.501 77.0111 199.57C76.9221 199.639 76.8127 199.676 76.7 199.676Z" fill="#CBC9B7"/>
<path d="M142.458 227H142.404C142.337 226.993 142.273 226.973 142.214 226.941C142.156 226.91 142.104 226.867 142.062 226.815C142.02 226.764 141.989 226.704 141.97 226.64C141.951 226.577 141.945 226.51 141.952 226.444L146.715 181.024C146.729 180.89 146.796 180.767 146.901 180.682C147.006 180.597 147.141 180.557 147.275 180.571C147.41 180.585 147.534 180.651 147.619 180.756C147.705 180.861 147.745 180.995 147.731 181.129L142.962 226.55C142.949 226.674 142.89 226.788 142.796 226.871C142.703 226.954 142.583 227 142.458 227Z" fill="#CBC9B7"/>
<path d="M145.371 199.637C145.258 199.637 145.149 199.6 145.06 199.531C144.971 199.462 144.908 199.366 144.88 199.257C144.852 199.148 144.861 199.034 144.906 198.931C144.951 198.828 145.029 198.743 145.127 198.689L169.413 185.478C169.472 185.446 169.536 185.426 169.602 185.419C169.669 185.412 169.736 185.418 169.8 185.437C169.864 185.456 169.924 185.487 169.976 185.528C170.028 185.57 170.071 185.621 170.103 185.68C170.135 185.738 170.155 185.802 170.162 185.868C170.169 185.934 170.163 186.001 170.145 186.065C170.126 186.129 170.095 186.188 170.053 186.24C170.011 186.292 169.959 186.335 169.901 186.366L145.615 199.575C145.54 199.616 145.456 199.637 145.371 199.637Z" fill="#CBC9B7"/>
<path d="M96.7404 121.857C97.1381 124.422 95.8195 127.214 93.5241 128.46C92.7184 128.894 91.5961 128.926 91.0104 129.71C90.7074 130.111 90.5483 130.633 90.2335 131.046C89.5829 131.908 88.7135 132.582 87.7147 132.998C86.8936 133.335 86.0078 133.487 85.1207 133.443C84.2336 133.399 83.3673 133.16 82.5838 132.744C81.8004 132.327 81.1193 131.743 80.5893 131.034C80.0593 130.324 79.6936 129.507 79.5184 128.64C79.3948 128.064 79.5895 127.4 79.3339 126.874C79.1037 126.404 78.5908 126.166 78.193 125.863C77.5159 125.357 77.0436 124.503 76.8202 123.706C76.4139 122.258 76.7322 120.672 77.5091 119.378C78.3562 117.995 79.68 116.967 81.2332 116.485C82.2101 116.182 83.2456 116.117 84.253 116.294C86.3131 116.661 87.4574 114.668 89.5225 114.69C90.1732 114.706 90.8128 114.861 91.3989 115.143C91.985 115.424 92.504 115.827 92.9215 116.324C93.7166 116.322 94.4951 116.55 95.1622 116.98C95.8292 117.411 96.3558 118.026 96.6777 118.749C100.563 117.904 104.325 116.567 107.87 114.772C105.008 118.249 101.111 120.73 96.7404 121.857Z" fill="white"/>
</g>
</g>
<defs>
<clipPath id="clip0_6_2520">
<rect width="124" height="187" fill="white" transform="translate(49 40)"/>
</clipPath>
</defs>
</svg>
