<svg width="375" height="667" viewBox="0 0 375 667" fill="none" xmlns="http://www.w3.org/2000/svg">
<g clip-path="url(#clip0_57_1715)">
<rect width="375" height="667" fill="#FCF9FD"/>
<path d="M124.088 203H114.52V201.784C114.947 201.571 115.363 201.389 115.768 201.24C116.173 201.091 116.611 200.963 117.08 200.856V187.48L117.24 183.736H116.984L115.928 187.16L109.752 203H108.28L102.136 187.288L100.984 183.544H100.696L100.728 187.608V200.728C101.133 200.813 101.581 200.952 102.072 201.144C102.563 201.336 103.021 201.549 103.448 201.784V203H95.64V201.784C95.9813 201.613 96.3973 201.411 96.888 201.176C97.4 200.941 97.88 200.781 98.328 200.696V182.744C97.9013 182.659 97.4427 182.541 96.952 182.392C96.4827 182.243 96.0667 182.051 95.704 181.816V180.6H104.376L109.272 193.624L110.2 196.696H110.232L111.192 193.56L116.184 180.6H124.12V181.816C123.757 182.029 123.363 182.221 122.936 182.392C122.531 182.541 122.115 182.659 121.688 182.744V200.888C122.136 200.973 122.563 201.101 122.968 201.272C123.395 201.443 123.768 201.613 124.088 201.784V203ZM140.302 200.312C140.131 200.675 139.854 201.048 139.47 201.432C139.107 201.795 138.649 202.125 138.094 202.424C137.561 202.701 136.931 202.925 136.206 203.096C135.502 203.288 134.734 203.384 133.902 203.384C132.579 203.384 131.406 203.192 130.382 202.808C129.358 202.403 128.505 201.837 127.822 201.112C127.139 200.365 126.617 199.48 126.254 198.456C125.913 197.432 125.742 196.28 125.742 195C125.742 192.269 126.457 190.189 127.886 188.76C129.315 187.331 131.299 186.616 133.838 186.616C134.926 186.616 135.939 186.765 136.878 187.064C137.838 187.363 138.627 187.853 139.246 188.536C139.886 189.219 140.323 190.115 140.558 191.224C140.814 192.333 140.803 193.688 140.526 195.288H130.702C130.723 196.973 131.15 198.317 131.982 199.32C132.835 200.323 134.083 200.824 135.726 200.824C136.43 200.824 137.155 200.717 137.902 200.504C138.67 200.291 139.267 200.013 139.694 199.672L140.302 200.312ZM133.71 188.44C133.283 188.44 132.899 188.515 132.558 188.664C132.238 188.813 131.95 189.091 131.694 189.496C131.459 189.88 131.267 190.413 131.118 191.096C130.969 191.757 130.862 192.6 130.798 193.624H135.95C136.099 191.96 136.003 190.68 135.662 189.784C135.321 188.888 134.67 188.44 133.71 188.44ZM153.842 199.832C153.735 200.301 153.543 200.749 153.266 201.176C152.988 201.603 152.658 201.987 152.274 202.328C151.89 202.648 151.452 202.904 150.962 203.096C150.471 203.288 149.948 203.384 149.394 203.384C147.282 203.384 145.671 202.723 144.562 201.4C143.474 200.056 142.93 198.008 142.93 195.256C142.93 193.848 143.122 192.621 143.506 191.576C143.89 190.509 144.423 189.613 145.106 188.888C145.81 188.163 146.652 187.619 147.634 187.256C148.615 186.893 149.703 186.712 150.898 186.712C151.282 186.712 151.602 186.723 151.858 186.744C152.135 186.765 152.38 186.797 152.594 186.84C152.828 186.861 153.042 186.915 153.234 187C153.447 187.064 153.682 187.139 153.938 187.224V181.592L151.506 181.336V180.088C151.804 179.96 152.21 179.843 152.722 179.736C153.255 179.629 153.81 179.533 154.386 179.448C154.962 179.341 155.527 179.245 156.082 179.16C156.636 179.075 157.095 179 157.458 178.936H158.546V200.728L160.658 200.984V202.104C160.359 202.253 159.975 202.392 159.506 202.52C159.036 202.648 158.546 202.765 158.034 202.872C157.522 202.979 157.02 203.064 156.53 203.128C156.06 203.213 155.666 203.277 155.346 203.32H154.258L153.97 199.832H153.842ZM150.93 200.824C151.676 200.824 152.306 200.589 152.818 200.12C153.33 199.651 153.703 198.851 153.938 197.72V189.112C153.66 188.941 153.308 188.803 152.882 188.696C152.476 188.589 151.964 188.536 151.345 188.536C150.108 188.536 149.223 189.101 148.69 190.232C148.156 191.341 147.89 192.963 147.89 195.096C147.89 196.824 148.124 198.211 148.594 199.256C149.063 200.301 149.842 200.824 150.93 200.824ZM170.918 203H162.086V201.752C162.406 201.581 162.736 201.443 163.078 201.336C163.419 201.208 163.792 201.091 164.198 200.984V189.272L162.086 189.016V187.768C162.406 187.64 162.8 187.512 163.27 187.384C163.76 187.256 164.272 187.149 164.806 187.064C165.339 186.957 165.862 186.872 166.374 186.808C166.886 186.723 167.334 186.659 167.718 186.616H168.806V200.984C169.232 201.091 169.616 201.208 169.958 201.336C170.299 201.443 170.619 201.581 170.918 201.752V203ZM163.654 181.752C163.654 181.005 163.91 180.419 164.422 179.992C164.934 179.565 165.595 179.352 166.406 179.352C167.216 179.352 167.878 179.565 168.39 179.992C168.902 180.419 169.158 181.005 169.158 181.752C169.158 182.477 168.902 183.053 168.39 183.48C167.878 183.907 167.216 184.12 166.406 184.12C165.595 184.12 164.934 183.907 164.422 183.48C163.91 183.053 163.654 182.477 163.654 181.752ZM171.975 187.768C172.785 187.256 173.639 186.893 174.535 186.68V184.088C174.705 183.96 175.121 183.779 175.783 183.544C176.465 183.288 177.223 183.085 178.055 182.936H179.143V187H183.367V189.016H179.143V197.304C179.143 198.627 179.303 199.544 179.623 200.056C179.964 200.568 180.519 200.824 181.287 200.824C181.671 200.824 182.097 200.803 182.567 200.76C183.057 200.696 183.505 200.589 183.911 200.44L184.135 201.496C183.943 201.688 183.655 201.891 183.271 202.104C182.908 202.317 182.481 202.52 181.991 202.712C181.521 202.904 180.999 203.064 180.423 203.192C179.868 203.32 179.281 203.384 178.663 203.384C177.276 203.384 176.241 203.021 175.559 202.296C174.876 201.571 174.535 200.397 174.535 198.776V189.016H171.975V187.768ZM199.54 198.36C199.54 198.829 199.54 199.235 199.54 199.576C199.561 199.917 199.593 200.28 199.636 200.664L201.844 200.984V202.104C201.588 202.232 201.236 202.36 200.788 202.488C200.361 202.616 199.903 202.744 199.412 202.872C198.943 202.979 198.473 203.064 198.004 203.128C197.535 203.213 197.119 203.277 196.756 203.32H195.668C195.455 202.829 195.327 202.339 195.284 201.848C195.241 201.357 195.209 200.76 195.188 200.056H195.028C194.921 200.483 194.74 200.899 194.484 201.304C194.228 201.688 193.897 202.04 193.492 202.36C193.108 202.659 192.649 202.904 192.116 203.096C191.583 203.288 190.985 203.384 190.324 203.384C189.62 203.384 188.969 203.277 188.372 203.064C187.775 202.851 187.252 202.552 186.804 202.168C186.356 201.784 186.004 201.325 185.748 200.792C185.492 200.237 185.364 199.619 185.364 198.936C185.364 197.976 185.545 197.187 185.908 196.568C186.271 195.949 186.836 195.448 187.604 195.064C188.393 194.659 189.396 194.36 190.612 194.168C191.849 193.976 193.343 193.837 195.092 193.752C195.263 191.917 195.188 190.573 194.868 189.72C194.548 188.867 193.855 188.44 192.788 188.44C192.127 188.44 191.519 188.547 190.964 188.76L189.46 192.6H188.052C187.881 192.344 187.711 192.056 187.54 191.736C187.391 191.395 187.241 191.043 187.092 190.68C186.964 190.296 186.847 189.912 186.74 189.528C186.655 189.144 186.591 188.771 186.548 188.408C187.359 187.853 188.404 187.416 189.684 187.096C190.964 186.776 192.319 186.616 193.748 186.616C194.964 186.616 195.956 186.755 196.724 187.032C197.492 187.288 198.089 187.651 198.516 188.12C198.964 188.568 199.273 189.101 199.444 189.72C199.615 190.339 199.7 191 199.7 191.704C199.7 192.984 199.668 194.147 199.604 195.192C199.561 196.216 199.54 197.272 199.54 198.36ZM192.34 200.824C192.788 200.824 193.172 200.739 193.492 200.568C193.812 200.397 194.079 200.195 194.292 199.96C194.527 199.725 194.697 199.469 194.804 199.192C194.932 198.915 195.028 198.669 195.092 198.456V195.256C194.089 195.277 193.268 195.341 192.628 195.448C191.988 195.555 191.487 195.736 191.124 195.992C190.761 196.227 190.505 196.536 190.356 196.92C190.228 197.283 190.164 197.731 190.164 198.264C190.164 199.075 190.356 199.704 190.74 200.152C191.124 200.6 191.657 200.824 192.34 200.824ZM202.569 187.768C203.379 187.256 204.233 186.893 205.129 186.68V184.088C205.299 183.96 205.715 183.779 206.377 183.544C207.059 183.288 207.817 183.085 208.649 182.936H209.737V187H213.961V189.016H209.737V197.304C209.737 198.627 209.897 199.544 210.217 200.056C210.558 200.568 211.113 200.824 211.881 200.824C212.265 200.824 212.691 200.803 213.161 200.76C213.651 200.696 214.099 200.589 214.505 200.44L214.729 201.496C214.537 201.688 214.249 201.891 213.865 202.104C213.502 202.317 213.075 202.52 212.585 202.712C212.115 202.904 211.593 203.064 211.017 203.192C210.462 203.32 209.875 203.384 209.257 203.384C207.87 203.384 206.835 203.021 206.153 202.296C205.47 201.571 205.129 200.397 205.129 198.776V189.016H202.569V187.768ZM224.918 203H216.086V201.752C216.406 201.581 216.736 201.443 217.078 201.336C217.419 201.208 217.792 201.091 218.198 200.984V189.272L216.086 189.016V187.768C216.406 187.64 216.8 187.512 217.27 187.384C217.76 187.256 218.272 187.149 218.806 187.064C219.339 186.957 219.862 186.872 220.374 186.808C220.886 186.723 221.334 186.659 221.718 186.616H222.806V200.984C223.232 201.091 223.616 201.208 223.958 201.336C224.299 201.443 224.619 201.581 224.918 201.752V203ZM217.654 181.752C217.654 181.005 217.91 180.419 218.422 179.992C218.934 179.565 219.595 179.352 220.406 179.352C221.216 179.352 221.878 179.565 222.39 179.992C222.902 180.419 223.158 181.005 223.158 181.752C223.158 182.477 222.902 183.053 222.39 183.48C221.878 183.907 221.216 184.12 220.406 184.12C219.595 184.12 218.934 183.907 218.422 183.48C217.91 183.053 217.654 182.477 217.654 181.752ZM226.711 195C226.711 193.699 226.903 192.536 227.287 191.512C227.692 190.467 228.257 189.581 228.983 188.856C229.729 188.131 230.625 187.576 231.671 187.192C232.716 186.808 233.9 186.616 235.223 186.616C236.716 186.616 237.996 186.829 239.063 187.256C240.151 187.661 241.036 188.237 241.719 188.984C242.423 189.709 242.935 190.595 243.255 191.64C243.575 192.664 243.735 193.784 243.735 195C243.735 196.301 243.543 197.475 243.159 198.52C242.775 199.544 242.209 200.419 241.463 201.144C240.737 201.869 239.841 202.424 238.775 202.808C237.729 203.192 236.545 203.384 235.223 203.384C233.772 203.384 232.513 203.181 231.447 202.776C230.38 202.349 229.495 201.773 228.791 201.048C228.087 200.301 227.564 199.416 227.223 198.392C226.881 197.347 226.711 196.216 226.711 195ZM231.671 195C231.671 195.96 231.724 196.845 231.831 197.656C231.959 198.445 232.172 199.117 232.471 199.672C232.769 200.227 233.175 200.664 233.687 200.984C234.199 201.283 234.86 201.432 235.671 201.432C236.14 201.432 236.567 201.325 236.951 201.112C237.335 200.877 237.665 200.515 237.943 200.024C238.22 199.512 238.423 198.851 238.551 198.04C238.7 197.208 238.775 196.195 238.775 195C238.775 194.019 238.711 193.133 238.583 192.344C238.476 191.555 238.273 190.883 237.975 190.328C237.697 189.773 237.313 189.347 236.823 189.048C236.332 188.728 235.713 188.568 234.967 188.568C234.412 188.568 233.932 188.685 233.527 188.92C233.121 189.133 232.78 189.496 232.503 190.008C232.225 190.499 232.012 191.16 231.863 191.992C231.735 192.803 231.671 193.805 231.671 195ZM264.943 203H256.463V201.752C256.74 201.603 257.007 201.475 257.263 201.368C257.54 201.24 257.86 201.112 258.223 200.984V193.464C258.223 192.12 258.031 191.075 257.647 190.328C257.263 189.56 256.58 189.176 255.599 189.176C254.788 189.176 254.084 189.443 253.487 189.976C252.911 190.488 252.473 191.192 252.175 192.088V200.984C252.516 201.069 252.815 201.176 253.071 201.304C253.348 201.411 253.636 201.56 253.935 201.752V203H245.455V201.752C245.988 201.475 246.692 201.219 247.567 200.984V189.272L245.455 189.016V187.768C245.732 187.64 246.095 187.523 246.543 187.416C246.991 187.288 247.471 187.171 247.983 187.064C248.516 186.957 249.049 186.872 249.583 186.808C250.137 186.723 250.639 186.659 251.087 186.616H252.175V189.912H252.207C252.655 189.016 253.327 188.248 254.223 187.608C255.119 186.947 256.207 186.616 257.487 186.616C258.319 186.616 259.065 186.723 259.727 186.936C260.388 187.128 260.943 187.48 261.391 187.992C261.86 188.504 262.212 189.197 262.447 190.072C262.703 190.925 262.831 192.013 262.831 193.336V200.984C263.684 201.133 264.388 201.389 264.943 201.752V203ZM274.529 199.512C274.529 198.957 274.326 198.477 273.921 198.072C273.537 197.667 273.046 197.293 272.449 196.952C271.873 196.611 271.233 196.269 270.529 195.928C269.846 195.587 269.206 195.192 268.609 194.744C268.033 194.275 267.542 193.731 267.137 193.112C266.753 192.493 266.561 191.736 266.561 190.84C266.561 190.2 266.71 189.624 267.009 189.112C267.307 188.579 267.713 188.131 268.225 187.768C268.737 187.405 269.345 187.128 270.049 186.936C270.774 186.723 271.553 186.616 272.385 186.616C273.537 186.616 274.603 186.712 275.585 186.904C276.587 187.075 277.462 187.32 278.209 187.64C278.123 188.323 277.953 189.059 277.697 189.848C277.441 190.616 277.195 191.32 276.961 191.96H275.873L274.529 188.696C274.273 188.589 274.006 188.525 273.729 188.504C273.451 188.461 273.142 188.44 272.801 188.44C272.161 188.44 271.67 188.632 271.329 189.016C271.009 189.379 270.849 189.795 270.849 190.264C270.849 190.797 271.041 191.267 271.425 191.672C271.83 192.056 272.321 192.419 272.897 192.76C273.494 193.101 274.134 193.443 274.817 193.784C275.521 194.125 276.161 194.52 276.737 194.968C277.334 195.395 277.825 195.907 278.209 196.504C278.614 197.101 278.817 197.816 278.817 198.648C278.817 200.12 278.219 201.283 277.025 202.136C275.83 202.968 274.23 203.384 272.225 203.384C271.201 203.384 270.145 203.277 269.057 203.064C267.969 202.851 267.03 202.552 266.241 202.168C266.283 201.4 266.465 200.621 266.785 199.832C267.105 199.043 267.446 198.339 267.809 197.72H268.897L270.465 201.208C270.699 201.379 270.955 201.485 271.233 201.528C271.531 201.549 271.809 201.56 272.065 201.56C272.683 201.56 273.249 201.379 273.76 201.016C274.273 200.653 274.529 200.152 274.529 199.512Z" fill="black"/>
<path d="M110.912 231.818V242H109.37V233.359H109.311L106.875 234.95V233.479L109.415 231.818H110.912ZM117.211 242.169C116.425 242.166 115.754 241.959 115.197 241.548C114.64 241.137 114.214 240.538 113.919 239.753C113.624 238.967 113.477 238.021 113.477 236.914C113.477 235.81 113.624 234.867 113.919 234.085C114.218 233.303 114.645 232.706 115.202 232.295C115.762 231.884 116.432 231.679 117.211 231.679C117.99 231.679 118.657 231.886 119.214 232.3C119.771 232.711 120.197 233.308 120.492 234.09C120.79 234.869 120.939 235.81 120.939 236.914C120.939 238.024 120.792 238.972 120.497 239.758C120.202 240.54 119.776 241.138 119.219 241.553C118.662 241.964 117.993 242.169 117.211 242.169ZM117.211 240.842C117.9 240.842 118.439 240.505 118.826 239.832C119.218 239.16 119.413 238.187 119.413 236.914C119.413 236.069 119.324 235.355 119.145 234.771C118.969 234.185 118.715 233.741 118.384 233.439C118.056 233.134 117.665 232.982 117.211 232.982C116.525 232.982 115.986 233.32 115.595 233.996C115.204 234.672 115.007 235.645 115.003 236.914C115.003 237.763 115.091 238.48 115.267 239.067C115.446 239.65 115.699 240.093 116.027 240.394C116.356 240.692 116.75 240.842 117.211 240.842ZM126.547 242V231.818H128.084V236.243H133.16V231.818H134.701V242H133.16V237.56H128.084V242H126.547ZM145.782 236.909C145.782 237.996 145.584 238.931 145.186 239.713C144.788 240.492 144.243 241.092 143.55 241.513C142.861 241.93 142.077 242.139 141.199 242.139C140.317 242.139 139.53 241.93 138.837 241.513C138.148 241.092 137.604 240.49 137.206 239.708C136.809 238.926 136.61 237.993 136.61 236.909C136.61 235.822 136.809 234.889 137.206 234.11C137.604 233.328 138.148 232.728 138.837 232.31C139.53 231.889 140.317 231.679 141.199 231.679C142.077 231.679 142.861 231.889 143.55 232.31C144.243 232.728 144.788 233.328 145.186 234.11C145.584 234.889 145.782 235.822 145.782 236.909ZM144.261 236.909C144.261 236.08 144.127 235.383 143.858 234.816C143.593 234.246 143.229 233.815 142.765 233.523C142.304 233.228 141.782 233.081 141.199 233.081C140.612 233.081 140.088 233.228 139.628 233.523C139.167 233.815 138.802 234.246 138.534 234.816C138.269 235.383 138.136 236.08 138.136 236.909C138.136 237.738 138.269 238.437 138.534 239.007C138.802 239.574 139.167 240.005 139.628 240.3C140.088 240.591 140.612 240.737 141.199 240.737C141.782 240.737 142.304 240.591 142.765 240.3C143.229 240.005 143.593 239.574 143.858 239.007C144.127 238.437 144.261 237.738 144.261 236.909ZM154.245 231.818H155.786V238.515C155.786 239.228 155.619 239.859 155.284 240.409C154.95 240.956 154.479 241.387 153.872 241.702C153.266 242.013 152.555 242.169 151.74 242.169C150.928 242.169 150.218 242.013 149.612 241.702C149.005 241.387 148.535 240.956 148.2 240.409C147.865 239.859 147.698 239.228 147.698 238.515V231.818H149.234V238.391C149.234 238.851 149.335 239.261 149.537 239.619C149.743 239.977 150.033 240.258 150.407 240.464C150.782 240.666 151.226 240.767 151.74 240.767C152.257 240.767 152.702 240.666 153.077 240.464C153.455 240.258 153.743 239.977 153.942 239.619C154.144 239.261 154.245 238.851 154.245 238.391V231.818ZM158.02 242V231.818H161.649C162.438 231.818 163.093 231.954 163.613 232.226C164.137 232.498 164.528 232.874 164.786 233.354C165.045 233.832 165.174 234.384 165.174 235.01C165.174 235.633 165.043 236.182 164.781 236.656C164.523 237.126 164.132 237.492 163.608 237.754C163.088 238.016 162.433 238.147 161.644 238.147H158.895V236.825H161.505C162.002 236.825 162.407 236.753 162.718 236.611C163.033 236.468 163.263 236.261 163.409 235.989C163.555 235.718 163.628 235.391 163.628 235.01C163.628 234.625 163.553 234.292 163.404 234.011C163.258 233.729 163.028 233.513 162.713 233.364C162.402 233.212 161.992 233.136 161.485 233.136H159.556V242H158.02ZM163.046 237.406L165.562 242H163.812L161.346 237.406H163.046ZM172.597 234.493C172.544 234.022 172.325 233.658 171.94 233.399C171.556 233.137 171.072 233.006 170.489 233.006C170.071 233.006 169.71 233.073 169.405 233.205C169.1 233.335 168.863 233.513 168.694 233.742C168.528 233.968 168.445 234.224 168.445 234.513C168.445 234.755 168.502 234.964 168.614 235.139C168.73 235.315 168.881 235.462 169.067 235.582C169.256 235.698 169.458 235.795 169.673 235.875C169.889 235.951 170.096 236.014 170.295 236.064L171.289 236.322C171.614 236.402 171.947 236.51 172.288 236.646C172.63 236.781 172.946 236.96 173.238 237.183C173.53 237.405 173.765 237.68 173.944 238.008C174.126 238.336 174.217 238.729 174.217 239.186C174.217 239.763 174.068 240.275 173.77 240.722C173.475 241.17 173.046 241.523 172.482 241.781C171.922 242.04 171.244 242.169 170.449 242.169C169.687 242.169 169.027 242.048 168.47 241.806C167.913 241.564 167.478 241.221 167.163 240.777C166.848 240.33 166.674 239.799 166.641 239.186H168.182C168.212 239.554 168.331 239.861 168.54 240.106C168.752 240.348 169.022 240.528 169.35 240.648C169.682 240.764 170.045 240.822 170.439 240.822C170.873 240.822 171.259 240.754 171.597 240.618C171.939 240.479 172.207 240.286 172.403 240.041C172.598 239.793 172.696 239.503 172.696 239.171C172.696 238.87 172.61 238.623 172.438 238.43C172.269 238.238 172.038 238.079 171.747 237.953C171.458 237.827 171.132 237.716 170.767 237.62L169.564 237.292C168.749 237.07 168.102 236.743 167.625 236.312C167.151 235.882 166.914 235.312 166.914 234.602C166.914 234.016 167.073 233.504 167.391 233.066C167.71 232.629 168.14 232.289 168.684 232.047C169.228 231.802 169.841 231.679 170.524 231.679C171.213 231.679 171.821 231.8 172.348 232.042C172.878 232.284 173.296 232.617 173.601 233.041C173.906 233.462 174.065 233.946 174.078 234.493H172.597ZM179.256 233.141V231.818H187.136V233.141H183.959V242H182.428V233.141H179.256ZM188.877 242V231.818H190.414V236.243H195.49V231.818H197.031V242H195.49V237.56H190.414V242H188.877ZM200.804 231.818V242H199.268V231.818H200.804ZM208.595 234.493C208.542 234.022 208.323 233.658 207.938 233.399C207.554 233.137 207.07 233.006 206.487 233.006C206.069 233.006 205.708 233.073 205.403 233.205C205.098 233.335 204.861 233.513 204.692 233.742C204.526 233.968 204.443 234.224 204.443 234.513C204.443 234.755 204.5 234.964 204.612 235.139C204.728 235.315 204.879 235.462 205.065 235.582C205.254 235.698 205.456 235.795 205.671 235.875C205.887 235.951 206.094 236.014 206.293 236.064L207.287 236.322C207.612 236.402 207.945 236.51 208.286 236.646C208.628 236.781 208.944 236.96 209.236 237.183C209.528 237.405 209.763 237.68 209.942 238.008C210.124 238.336 210.215 238.729 210.215 239.186C210.215 239.763 210.066 240.275 209.768 240.722C209.473 241.17 209.044 241.523 208.48 241.781C207.92 242.04 207.242 242.169 206.447 242.169C205.685 242.169 205.025 242.048 204.468 241.806C203.911 241.564 203.476 241.221 203.161 240.777C202.846 240.33 202.672 239.799 202.639 239.186H204.18C204.21 239.554 204.329 239.861 204.538 240.106C204.75 240.348 205.02 240.528 205.348 240.648C205.68 240.764 206.043 240.822 206.437 240.822C206.871 240.822 207.257 240.754 207.595 240.618C207.937 240.479 208.205 240.286 208.401 240.041C208.596 239.793 208.694 239.503 208.694 239.171C208.694 238.87 208.608 238.623 208.436 238.43C208.267 238.238 208.036 238.079 207.745 237.953C207.456 237.827 207.13 237.716 206.765 237.62L205.562 237.292C204.747 237.07 204.1 236.743 203.623 236.312C203.149 235.882 202.912 235.312 202.912 234.602C202.912 234.016 203.071 233.504 203.389 233.066C203.708 232.629 204.139 232.289 204.682 232.047C205.226 231.802 205.839 231.679 206.522 231.679C207.211 231.679 207.819 231.8 208.346 232.042C208.876 232.284 209.294 232.617 209.599 233.041C209.904 233.462 210.063 233.946 210.076 234.493H208.595ZM215.756 231.818H217.621L220.862 239.733H220.981L224.223 231.818H226.087V242H224.626V234.632H224.531L221.528 241.985H220.315L217.312 234.627H217.218V242H215.756V231.818ZM237.165 236.909C237.165 237.996 236.966 238.931 236.569 239.713C236.171 240.492 235.626 241.092 234.933 241.513C234.244 241.93 233.46 242.139 232.581 242.139C231.7 242.139 230.913 241.93 230.22 241.513C229.531 241.092 228.987 240.49 228.589 239.708C228.191 238.926 227.993 237.993 227.993 236.909C227.993 235.822 228.191 234.889 228.589 234.11C228.987 233.328 229.531 232.728 230.22 232.31C230.913 231.889 231.7 231.679 232.581 231.679C233.46 231.679 234.244 231.889 234.933 232.31C235.626 232.728 236.171 233.328 236.569 234.11C236.966 234.889 237.165 235.822 237.165 236.909ZM235.644 236.909C235.644 236.08 235.51 235.383 235.241 234.816C234.976 234.246 234.611 233.815 234.147 233.523C233.687 233.228 233.165 233.081 232.581 233.081C231.995 233.081 231.471 233.228 231.01 233.523C230.55 233.815 230.185 234.246 229.917 234.816C229.651 235.383 229.519 236.08 229.519 236.909C229.519 237.738 229.651 238.437 229.917 239.007C230.185 239.574 230.55 240.005 231.01 240.3C231.471 240.591 231.995 240.737 232.581 240.737C233.165 240.737 233.687 240.591 234.147 240.3C234.611 240.005 234.976 239.574 235.241 239.007C235.51 238.437 235.644 237.738 235.644 236.909ZM247.299 231.818V242H245.887L240.711 234.533H240.617V242H239.081V231.818H240.502L245.683 239.295H245.777V231.818H247.299ZM249.037 233.141V231.818H256.917V233.141H253.741V242H252.209V233.141H249.037ZM258.659 242V231.818H260.195V236.243H265.271V231.818H266.812V242H265.271V237.56H260.195V242H258.659Z" fill="#C591DF"/>
<g filter="url(#filter0_b_57_1715)">
<path d="M0 611H357C364.499 611 368.249 611 370.878 612.91C371.727 613.527 372.473 614.273 373.09 615.122C375 617.751 375 621.501 375 629V667H0V611Z" fill="white" fill-opacity="0.618"/>
<g filter="url(#filter1_bd_57_1715)">
<path d="M64.7495 638.499V633.999C64.7495 633.8 64.6704 633.61 64.5298 633.469C64.3891 633.328 64.1984 633.249 63.9995 633.249H60.9995C60.8005 633.249 60.6098 633.328 60.4691 633.469C60.3285 633.61 60.2495 633.8 60.2495 633.999V638.499C60.2495 638.698 60.1704 638.889 60.0298 639.03C59.8892 639.17 59.6984 639.249 59.4995 639.249L55.0001 639.25C54.9016 639.25 54.8041 639.231 54.7131 639.193C54.622 639.155 54.5394 639.1 54.4697 639.03C54.4 638.961 54.3448 638.878 54.3071 638.787C54.2694 638.696 54.25 638.598 54.25 638.5V629.832C54.25 629.727 54.2718 629.624 54.3141 629.528C54.3564 629.433 54.4181 629.347 54.4954 629.277L61.9949 622.458C62.133 622.332 62.3129 622.263 62.4995 622.263C62.686 622.263 62.8659 622.332 63.004 622.458L70.5045 629.277C70.5818 629.347 70.6436 629.433 70.6859 629.528C70.7282 629.624 70.75 629.727 70.75 629.832V638.5C70.75 638.598 70.7306 638.696 70.6929 638.787C70.6552 638.878 70.6 638.961 70.5303 639.03C70.4606 639.1 70.378 639.155 70.2869 639.193C70.1959 639.231 70.0984 639.25 69.9999 639.25L65.4994 639.249C65.3005 639.249 65.1097 639.17 64.9691 639.03C64.8285 638.889 64.7494 638.698 64.7495 638.499V638.499Z" fill="#C991E5" fill-opacity="0.26" stroke="#A657CD" stroke-width="2" stroke-linecap="round" stroke-linejoin="round"/>
</g>
<path d="M52.2814 656C52.2814 655.524 52.2814 655.066 52.2814 654.626C52.2814 654.186 52.2814 653.702 52.2814 653.174V650.306C52.2814 649.766 52.2814 649.274 52.2814 648.83C52.2814 648.382 52.2814 647.92 52.2814 647.444H53.3674C53.3674 647.92 53.3674 648.382 53.3674 648.83C53.3674 649.274 53.3674 649.766 53.3674 650.306V653.174C53.3674 653.702 53.3674 654.186 53.3674 654.626C53.3674 655.066 53.3674 655.524 53.3674 656H52.2814ZM46.5934 656C46.5934 655.524 46.5934 655.066 46.5934 654.626C46.5934 654.186 46.5934 653.702 46.5934 653.174V650.306C46.5934 649.766 46.5934 649.274 46.5934 648.83C46.5934 648.382 46.5934 647.92 46.5934 647.444H47.6794C47.6794 647.92 47.6794 648.382 47.6794 648.83C47.6794 649.274 47.6794 649.766 47.6794 650.306V653.174C47.6794 653.702 47.6794 654.186 47.6794 654.626C47.6794 655.066 47.6794 655.524 47.6794 656H46.5934ZM47.3014 652.136V651.2H52.6954V652.136H47.3014ZM58.4377 656.132C57.9457 656.132 57.5117 656.048 57.1357 655.88C56.7637 655.708 56.4517 655.476 56.1997 655.184C55.9477 654.892 55.7557 654.558 55.6237 654.182C55.4957 653.802 55.4317 653.404 55.4317 652.988C55.4317 652.392 55.5517 651.864 55.7917 651.404C56.0357 650.94 56.3797 650.574 56.8237 650.306C57.2717 650.038 57.8037 649.904 58.4197 649.904C58.8957 649.904 59.3177 649.982 59.6857 650.138C60.0537 650.294 60.3657 650.512 60.6217 650.792C60.8777 651.072 61.0717 651.4 61.2037 651.776C61.3357 652.148 61.4017 652.552 61.4017 652.988C61.4017 653.576 61.2817 654.108 61.0417 654.584C60.8017 655.06 60.4597 655.438 60.0157 655.718C59.5757 655.994 59.0497 656.132 58.4377 656.132ZM58.4377 655.268C58.8737 655.268 59.2357 655.16 59.5237 654.944C59.8117 654.728 60.0277 654.446 60.1717 654.098C60.3157 653.75 60.3877 653.38 60.3877 652.988C60.3877 652.54 60.3077 652.15 60.1477 651.818C59.9877 651.486 59.7617 651.228 59.4697 651.044C59.1777 650.86 58.8317 650.768 58.4317 650.768C57.9997 650.768 57.6357 650.866 57.3397 651.062C57.0437 651.258 56.8197 651.524 56.6677 651.86C56.5197 652.196 56.4457 652.572 56.4457 652.988C56.4457 653.38 56.5177 653.75 56.6617 654.098C56.8097 654.446 57.0317 654.728 57.3277 654.944C57.6237 655.16 57.9937 655.268 58.4377 655.268ZM63.3956 656C63.3956 655.556 63.3956 655.13 63.3956 654.722C63.3956 654.314 63.3956 653.864 63.3956 653.372V652.772C63.3956 652.332 63.3956 651.882 63.3956 651.422C63.3956 650.962 63.3956 650.504 63.3956 650.048L64.2596 649.988L64.2896 651.08H64.3976C64.5216 650.904 64.6776 650.726 64.8656 650.546C65.0576 650.362 65.2836 650.21 65.5436 650.09C65.8036 649.966 66.1016 649.904 66.4376 649.904C66.9256 649.904 67.2996 650.026 67.5596 650.27C67.8236 650.51 67.9956 650.856 68.0756 651.308L68.1356 651.344C68.1516 651.452 68.1636 651.564 68.1716 651.68C68.1836 651.792 68.1896 651.91 68.1896 652.034C68.1896 652.294 68.1896 652.524 68.1896 652.724C68.1896 652.924 68.1896 653.14 68.1896 653.372C68.1896 653.844 68.1896 654.29 68.1896 654.71C68.1896 655.126 68.1896 655.556 68.1896 656H67.1996C67.1996 655.556 67.1996 655.128 67.1996 654.716C67.1996 654.3 67.1996 653.866 67.1996 653.414V652.286C67.1996 651.81 67.1196 651.45 66.9596 651.206C66.7996 650.962 66.5096 650.84 66.0896 650.84C65.8336 650.84 65.6016 650.896 65.3936 651.008C65.1896 651.116 65.0036 651.262 64.8356 651.446C64.6716 651.626 64.5216 651.824 64.3856 652.04V653.414C64.3856 653.882 64.3856 654.32 64.3856 654.728C64.3856 655.132 64.3856 655.556 64.3856 656H63.3956ZM70.9556 656C70.9556 655.556 70.9556 655.128 70.9556 654.716C70.9556 654.3 70.9556 653.866 70.9556 653.414V652.286C70.9556 651.81 70.8756 651.45 70.7156 651.206C70.5556 650.962 70.2656 650.84 69.8456 650.84C69.5936 650.84 69.3636 650.894 69.1556 651.002C68.9516 651.11 68.7636 651.256 68.5916 651.44C68.4236 651.62 68.2736 651.82 68.1416 652.04L67.9976 651.104H68.1056C68.2416 650.92 68.4076 650.736 68.6036 650.552C68.8036 650.364 69.0356 650.21 69.2996 650.09C69.5636 649.966 69.8636 649.904 70.1996 649.904C70.8236 649.904 71.2696 650.09 71.5376 650.462C71.8096 650.834 71.9456 651.358 71.9456 652.034C71.9456 652.294 71.9456 652.524 71.9456 652.724C71.9456 652.924 71.9456 653.14 71.9456 653.372C71.9456 653.844 71.9456 654.29 71.9456 654.71C71.9456 655.126 71.9456 655.556 71.9456 656H70.9556ZM76.9084 656.132C76.1964 656.132 75.6104 655.996 75.1504 655.724C74.6904 655.452 74.3484 655.08 74.1244 654.608C73.9004 654.136 73.7884 653.596 73.7884 652.988C73.7884 652.388 73.8984 651.856 74.1184 651.392C74.3384 650.928 74.6544 650.566 75.0664 650.306C75.4784 650.042 75.9704 649.91 76.5424 649.91C77.0464 649.91 77.4784 650.008 77.8384 650.204C78.2024 650.4 78.4824 650.688 78.6784 651.068C78.8744 651.444 78.9724 651.91 78.9724 652.466C78.9724 652.614 78.9684 652.748 78.9604 652.868C78.9564 652.984 78.9444 653.102 78.9244 653.222L78.0544 652.784C78.0624 652.72 78.0664 652.66 78.0664 652.604C78.0704 652.544 78.0724 652.486 78.0724 652.43C78.0724 651.866 77.9324 651.438 77.6524 651.146C77.3724 650.85 77.0064 650.702 76.5544 650.702C76.1904 650.702 75.8764 650.796 75.6124 650.984C75.3524 651.168 75.1504 651.424 75.0064 651.752C74.8624 652.08 74.7904 652.454 74.7904 652.874V653.012C74.7904 653.476 74.8704 653.876 75.0304 654.212C75.1904 654.548 75.4324 654.808 75.7564 654.992C76.0844 655.172 76.5004 655.262 77.0044 655.262C77.1924 655.262 77.3904 655.248 77.5984 655.22C77.8104 655.188 78.0184 655.14 78.2224 655.076C78.4304 655.012 78.6284 654.928 78.8164 654.824L78.8584 655.718C78.7064 655.802 78.5304 655.876 78.3304 655.94C78.1304 656 77.9104 656.046 77.6704 656.078C77.4304 656.114 77.1764 656.132 76.9084 656.132ZM74.2024 653.222V652.514L78.3184 652.478L78.9244 652.706V653.222H74.2024Z" fill="#A657CD"/>
<g opacity="0.5" filter="url(#filter2_bd_57_1715)">
<path d="M187.5 640C192.471 640 196.5 635.971 196.5 631C196.5 626.029 192.471 622 187.5 622C182.529 622 178.5 626.029 178.5 631C178.5 635.971 182.529 640 187.5 640Z" stroke="#A657CD" stroke-width="2" stroke-miterlimit="10"/>
<path d="M187.5 634C189.571 634 191.25 632.321 191.25 630.25C191.25 628.179 189.571 626.5 187.5 626.5C185.429 626.5 183.75 628.179 183.75 630.25C183.75 632.321 185.429 634 187.5 634Z" stroke="#A657CD" stroke-width="2" stroke-miterlimit="10"/>
<path d="M181.481 637.691C182.046 636.581 182.907 635.648 183.97 634.996C185.032 634.345 186.254 634 187.5 634C188.746 634 189.968 634.345 191.03 634.996C192.093 635.648 192.954 636.581 193.519 637.691" stroke="#A657CD" stroke-width="2" stroke-linecap="round" stroke-linejoin="round"/>
</g>
<path d="M169.325 656C169.325 655.524 169.325 655.066 169.325 654.626C169.325 654.186 169.325 653.702 169.325 653.174V650.3C169.325 649.768 169.325 649.278 169.325 648.83C169.325 648.382 169.325 647.92 169.325 647.444C169.649 647.444 170.067 647.444 170.579 647.444C171.095 647.444 171.685 647.444 172.349 647.444C173.001 647.444 173.539 647.53 173.963 647.702C174.391 647.874 174.711 648.142 174.923 648.506C175.135 648.866 175.241 649.328 175.241 649.892C175.241 650.416 175.143 650.882 174.947 651.29C174.755 651.694 174.431 652.012 173.975 652.244C173.523 652.476 172.905 652.592 172.121 652.592C171.921 652.592 171.707 652.592 171.479 652.592C171.251 652.592 171.029 652.592 170.813 652.592C170.597 652.592 170.409 652.592 170.249 652.592V651.692H171.917C172.429 651.692 172.847 651.632 173.171 651.512C173.499 651.392 173.741 651.2 173.897 650.936C174.053 650.672 174.131 650.326 174.131 649.898C174.131 649.546 174.073 649.266 173.957 649.058C173.845 648.85 173.695 648.696 173.507 648.596C173.323 648.492 173.123 648.424 172.907 648.392C172.691 648.36 172.481 648.344 172.277 648.344H169.865L170.393 647.6C170.393 648.08 170.393 648.544 170.393 648.992C170.393 649.436 170.393 649.924 170.393 650.456V653.174C170.393 653.702 170.393 654.186 170.393 654.626C170.393 655.066 170.393 655.524 170.393 656H169.325ZM177.142 656C177.142 655.556 177.142 655.13 177.142 654.722C177.142 654.314 177.142 653.864 177.142 653.372V652.772C177.142 652.332 177.142 651.882 177.142 651.422C177.142 650.962 177.142 650.504 177.142 650.048L178.006 649.988L178.036 651.2H178.138C178.302 650.836 178.49 650.562 178.702 650.378C178.918 650.19 179.136 650.064 179.356 650C179.576 649.936 179.778 649.904 179.962 649.904C180.074 649.904 180.186 649.912 180.298 649.928C180.41 649.944 180.516 649.97 180.616 650.006L180.526 651.002C180.394 650.978 180.274 650.958 180.166 650.942C180.062 650.926 179.94 650.918 179.8 650.918C179.684 650.918 179.552 650.936 179.404 650.972C179.26 651.004 179.11 651.074 178.954 651.182C178.802 651.286 178.654 651.444 178.51 651.656C178.366 651.864 178.24 652.142 178.132 652.49V653.414C178.132 653.882 178.132 654.32 178.132 654.728C178.132 655.132 178.132 655.556 178.132 656H177.142ZM184.67 656.132C184.178 656.132 183.744 656.048 183.368 655.88C182.996 655.708 182.684 655.476 182.432 655.184C182.18 654.892 181.988 654.558 181.856 654.182C181.728 653.802 181.664 653.404 181.664 652.988C181.664 652.392 181.784 651.864 182.024 651.404C182.268 650.94 182.612 650.574 183.056 650.306C183.504 650.038 184.036 649.904 184.652 649.904C185.128 649.904 185.55 649.982 185.918 650.138C186.286 650.294 186.598 650.512 186.854 650.792C187.11 651.072 187.304 651.4 187.436 651.776C187.568 652.148 187.634 652.552 187.634 652.988C187.634 653.576 187.514 654.108 187.274 654.584C187.034 655.06 186.692 655.438 186.248 655.718C185.808 655.994 185.282 656.132 184.67 656.132ZM184.67 655.268C185.106 655.268 185.468 655.16 185.756 654.944C186.044 654.728 186.26 654.446 186.404 654.098C186.548 653.75 186.62 653.38 186.62 652.988C186.62 652.54 186.54 652.15 186.38 651.818C186.22 651.486 185.994 651.228 185.702 651.044C185.41 650.86 185.064 650.768 184.664 650.768C184.232 650.768 183.868 650.866 183.572 651.062C183.276 651.258 183.052 651.524 182.9 651.86C182.752 652.196 182.678 652.572 182.678 652.988C182.678 653.38 182.75 653.75 182.894 654.098C183.042 654.446 183.264 654.728 183.56 654.944C183.856 655.16 184.226 655.268 184.67 655.268ZM189.936 656C189.936 655.556 189.936 655.13 189.936 654.722C189.936 654.314 189.936 653.864 189.936 653.372V652.772C189.936 652.528 189.936 652.272 189.936 652.004C189.936 651.732 189.936 651.45 189.936 651.158C189.936 650.866 189.936 650.564 189.936 650.252C189.936 649.936 189.936 649.608 189.936 649.268C189.936 648.844 189.992 648.49 190.104 648.206C190.22 647.922 190.378 647.696 190.578 647.528C190.782 647.36 191.014 647.24 191.274 647.168C191.534 647.092 191.812 647.054 192.108 647.054C192.252 647.054 192.392 647.062 192.528 647.078C192.664 647.09 192.788 647.108 192.9 647.132C193.016 647.156 193.114 647.184 193.194 647.216L193.104 648.074C192.976 648.026 192.838 647.99 192.69 647.966C192.546 647.938 192.394 647.924 192.234 647.924C191.766 647.924 191.424 648.038 191.208 648.266C190.996 648.49 190.89 648.832 190.89 649.292C190.89 649.416 190.89 649.556 190.89 649.712C190.89 649.864 190.89 649.976 190.89 650.048L190.926 650.27V653.372C190.926 653.864 190.926 654.314 190.926 654.722C190.926 655.13 190.926 655.556 190.926 656H189.936ZM188.808 650.834V650.048H192.942V650.834C192.542 650.834 192.152 650.834 191.772 650.834C191.392 650.834 191.01 650.834 190.626 650.834H190.218H188.808ZM194.652 656C194.652 655.556 194.652 655.13 194.652 654.722C194.652 654.314 194.652 653.864 194.652 653.372V652.772C194.652 652.416 194.652 652.088 194.652 651.788C194.652 651.484 194.652 651.192 194.652 650.912C194.652 650.628 194.652 650.34 194.652 650.048L195.648 650.012C195.648 650.308 195.648 650.6 195.648 650.888C195.648 651.172 195.648 651.468 195.648 651.776C195.648 652.08 195.648 652.412 195.648 652.772V653.372C195.648 653.864 195.648 654.314 195.648 654.722C195.648 655.13 195.648 655.556 195.648 656H194.652ZM195.132 648.674C194.916 648.674 194.74 648.614 194.604 648.494C194.468 648.374 194.4 648.19 194.4 647.942C194.4 647.698 194.468 647.516 194.604 647.396C194.74 647.272 194.92 647.21 195.144 647.21C195.364 647.21 195.54 647.274 195.672 647.402C195.804 647.526 195.87 647.706 195.87 647.942C195.87 648.19 195.804 648.374 195.672 648.494C195.54 648.614 195.36 648.674 195.132 648.674ZM198.082 656C198.082 655.556 198.082 655.13 198.082 654.722C198.082 654.314 198.082 653.864 198.082 653.372V650.078C198.082 649.574 198.082 649.084 198.082 648.608C198.082 648.132 198.082 647.668 198.082 647.216L199.072 647.096C199.072 647.58 199.072 648.066 199.072 648.554C199.072 649.038 199.072 649.546 199.072 650.078V653.372C199.072 653.864 199.072 654.314 199.072 654.722C199.072 655.13 199.072 655.556 199.072 656H198.082ZM204.177 656.132C203.465 656.132 202.879 655.996 202.419 655.724C201.959 655.452 201.617 655.08 201.393 654.608C201.169 654.136 201.057 653.596 201.057 652.988C201.057 652.388 201.167 651.856 201.387 651.392C201.607 650.928 201.923 650.566 202.335 650.306C202.747 650.042 203.239 649.91 203.811 649.91C204.315 649.91 204.747 650.008 205.107 650.204C205.471 650.4 205.751 650.688 205.947 651.068C206.143 651.444 206.241 651.91 206.241 652.466C206.241 652.614 206.237 652.748 206.229 652.868C206.225 652.984 206.213 653.102 206.193 653.222L205.323 652.784C205.331 652.72 205.335 652.66 205.335 652.604C205.339 652.544 205.341 652.486 205.341 652.43C205.341 651.866 205.201 651.438 204.921 651.146C204.641 650.85 204.275 650.702 203.823 650.702C203.459 650.702 203.145 650.796 202.881 650.984C202.621 651.168 202.419 651.424 202.275 651.752C202.131 652.08 202.059 652.454 202.059 652.874V653.012C202.059 653.476 202.139 653.876 202.299 654.212C202.459 654.548 202.701 654.808 203.025 654.992C203.353 655.172 203.769 655.262 204.273 655.262C204.461 655.262 204.659 655.248 204.867 655.22C205.079 655.188 205.287 655.14 205.491 655.076C205.699 655.012 205.897 654.928 206.085 654.824L206.127 655.718C205.975 655.802 205.799 655.876 205.599 655.94C205.399 656 205.179 656.046 204.939 656.078C204.699 656.114 204.445 656.132 204.177 656.132ZM201.471 653.222V652.514L205.587 652.478L206.193 652.706V653.222H201.471Z" fill="#C991E5"/>
<g opacity="0.5" filter="url(#filter3_bd_57_1715)">
<path d="M311.141 636.071C313.942 636.822 316.821 635.16 317.571 632.359C318.322 629.558 316.66 626.679 313.859 625.929C311.058 625.178 308.179 626.841 307.429 629.641C306.679 632.442 308.341 635.321 311.141 636.071Z" stroke="#A657CD" stroke-width="2" stroke-linecap="round" stroke-linejoin="round"/>
<path d="M320.663 632.411L321.972 631.261C322.057 631.187 322.124 631.095 322.17 630.992C322.215 630.889 322.238 630.778 322.235 630.665C322.214 630.038 322.133 629.415 321.991 628.803C321.965 628.694 321.914 628.592 321.844 628.505C321.773 628.417 321.684 628.346 321.583 628.297L320.02 627.525L319.27 626.226L319.382 624.485C319.39 624.373 319.373 624.261 319.333 624.156C319.292 624.051 319.229 623.956 319.148 623.879C318.69 623.451 318.19 623.068 317.658 622.737C317.561 622.678 317.453 622.642 317.342 622.63C317.23 622.618 317.116 622.63 317.01 622.667L315.36 623.225L313.911 622.837L312.761 621.529C312.687 621.444 312.595 621.376 312.492 621.33C312.389 621.285 312.278 621.262 312.165 621.265C311.538 621.286 310.915 621.367 310.303 621.509C310.194 621.535 310.092 621.586 310.005 621.656C309.917 621.727 309.846 621.816 309.797 621.917L309.025 623.48L307.726 624.23L305.986 624.118C305.873 624.11 305.761 624.127 305.656 624.167C305.551 624.208 305.456 624.271 305.379 624.352C304.951 624.811 304.568 625.31 304.237 625.842C304.178 625.939 304.142 626.047 304.13 626.159C304.118 626.271 304.13 626.384 304.167 626.49L304.725 628.14L304.337 629.589L303.029 630.739C302.944 630.813 302.876 630.905 302.83 631.008C302.785 631.111 302.762 631.222 302.765 631.335C302.786 631.962 302.867 632.586 303.009 633.197C303.035 633.306 303.086 633.408 303.156 633.495C303.227 633.583 303.316 633.654 303.417 633.703L304.98 634.476L305.73 635.775L305.618 637.515C305.61 637.627 305.627 637.739 305.667 637.844C305.708 637.949 305.771 638.044 305.852 638.121C306.31 638.549 306.81 638.932 307.342 639.263C307.439 639.322 307.546 639.358 307.658 639.37C307.77 639.382 307.884 639.37 307.99 639.333L309.64 638.775L311.089 639.163L312.239 640.472C312.313 640.557 312.405 640.624 312.508 640.67C312.611 640.715 312.722 640.738 312.835 640.735C313.462 640.714 314.086 640.633 314.697 640.491C314.806 640.465 314.908 640.414 314.995 640.344C315.083 640.273 315.154 640.184 315.203 640.083L315.976 638.52L317.275 637.77L319.015 637.882C319.127 637.89 319.239 637.873 319.344 637.833C319.449 637.792 319.544 637.729 319.621 637.648C320.049 637.19 320.432 636.69 320.763 636.158C320.822 636.062 320.858 635.954 320.87 635.842C320.882 635.73 320.87 635.616 320.833 635.51L320.275 633.86L320.663 632.411Z" stroke="#A657CD" stroke-width="2" stroke-linecap="round" stroke-linejoin="round"/>
</g>
<path d="M292.305 656.132C291.949 656.132 291.589 656.098 291.225 656.03C290.865 655.966 290.531 655.886 290.223 655.79C289.919 655.69 289.673 655.59 289.485 655.49L289.587 654.464C289.855 654.612 290.133 654.742 290.421 654.854C290.713 654.962 291.009 655.046 291.309 655.106C291.613 655.166 291.923 655.196 292.239 655.196C292.595 655.196 292.915 655.148 293.199 655.052C293.487 654.952 293.713 654.796 293.877 654.584C294.045 654.368 294.129 654.086 294.129 653.738C294.129 653.434 294.043 653.184 293.871 652.988C293.699 652.788 293.449 652.616 293.121 652.472C292.797 652.328 292.403 652.184 291.939 652.04C291.395 651.868 290.931 651.682 290.547 651.482C290.163 651.282 289.869 651.036 289.665 650.744C289.465 650.448 289.365 650.072 289.365 649.616C289.365 649.172 289.469 648.774 289.677 648.422C289.889 648.07 290.203 647.794 290.619 647.594C291.035 647.39 291.551 647.288 292.167 647.288C292.423 647.288 292.675 647.306 292.923 647.342C293.175 647.378 293.415 647.428 293.643 647.492C293.871 647.552 294.079 647.62 294.267 647.696C294.455 647.772 294.615 647.85 294.747 647.93L294.639 648.962C294.395 648.798 294.137 648.662 293.865 648.554C293.593 648.442 293.323 648.36 293.055 648.308C292.787 648.252 292.539 648.224 292.311 648.224C291.987 648.224 291.689 648.272 291.417 648.368C291.145 648.464 290.925 648.612 290.757 648.812C290.593 649.008 290.511 649.262 290.511 649.574C290.511 649.846 290.581 650.072 290.721 650.252C290.861 650.432 291.081 650.594 291.381 650.738C291.685 650.878 292.075 651.024 292.551 651.176C293.239 651.392 293.779 651.612 294.171 651.836C294.567 652.056 294.847 652.312 295.011 652.604C295.179 652.896 295.263 653.254 295.263 653.678C295.263 654.146 295.159 654.564 294.951 654.932C294.747 655.3 294.427 655.592 293.991 655.808C293.555 656.024 292.993 656.132 292.305 656.132ZM299.834 656.132C299.122 656.132 298.536 655.996 298.076 655.724C297.616 655.452 297.274 655.08 297.05 654.608C296.826 654.136 296.714 653.596 296.714 652.988C296.714 652.388 296.824 651.856 297.044 651.392C297.264 650.928 297.58 650.566 297.992 650.306C298.404 650.042 298.896 649.91 299.468 649.91C299.972 649.91 300.404 650.008 300.764 650.204C301.128 650.4 301.408 650.688 301.604 651.068C301.8 651.444 301.898 651.91 301.898 652.466C301.898 652.614 301.894 652.748 301.886 652.868C301.882 652.984 301.87 653.102 301.85 653.222L300.98 652.784C300.988 652.72 300.992 652.66 300.992 652.604C300.996 652.544 300.998 652.486 300.998 652.43C300.998 651.866 300.858 651.438 300.578 651.146C300.298 650.85 299.932 650.702 299.48 650.702C299.116 650.702 298.802 650.796 298.538 650.984C298.278 651.168 298.076 651.424 297.932 651.752C297.788 652.08 297.716 652.454 297.716 652.874V653.012C297.716 653.476 297.796 653.876 297.956 654.212C298.116 654.548 298.358 654.808 298.682 654.992C299.01 655.172 299.426 655.262 299.93 655.262C300.118 655.262 300.316 655.248 300.524 655.22C300.736 655.188 300.944 655.14 301.148 655.076C301.356 655.012 301.554 654.928 301.742 654.824L301.784 655.718C301.632 655.802 301.456 655.876 301.256 655.94C301.056 656 300.836 656.046 300.596 656.078C300.356 656.114 300.102 656.132 299.834 656.132ZM297.128 653.222V652.514L301.244 652.478L301.85 652.706V653.222H297.128ZM306.008 656.132C305.612 656.132 305.276 656.064 305 655.928C304.724 655.788 304.514 655.578 304.37 655.298C304.23 655.014 304.16 654.652 304.16 654.212C304.16 653.864 304.16 653.52 304.16 653.18C304.16 652.836 304.16 652.5 304.16 652.172C304.16 651.84 304.16 651.522 304.16 651.218C304.16 650.91 304.16 650.616 304.16 650.336C304.16 649.928 304.16 649.55 304.16 649.202C304.16 648.854 304.16 648.492 304.16 648.116L305.138 647.9C305.138 648.196 305.138 648.47 305.138 648.722C305.138 648.974 305.138 649.228 305.138 649.484C305.138 649.74 305.138 650.024 305.138 650.336V653.978C305.138 654.406 305.228 654.728 305.408 654.944C305.592 655.16 305.872 655.268 306.248 655.268C306.396 655.268 306.558 655.244 306.734 655.196C306.91 655.144 307.066 655.064 307.202 654.956L307.286 655.826C307.206 655.886 307.098 655.94 306.962 655.988C306.826 656.032 306.676 656.066 306.512 656.09C306.348 656.118 306.18 656.132 306.008 656.132ZM303.014 650.834V650.048H307.226V650.834C306.826 650.834 306.422 650.834 306.014 650.834C305.61 650.834 305.216 650.834 304.832 650.834H304.424H303.014ZM311.29 656.132C310.894 656.132 310.558 656.064 310.282 655.928C310.006 655.788 309.796 655.578 309.652 655.298C309.512 655.014 309.442 654.652 309.442 654.212C309.442 653.864 309.442 653.52 309.442 653.18C309.442 652.836 309.442 652.5 309.442 652.172C309.442 651.84 309.442 651.522 309.442 651.218C309.442 650.91 309.442 650.616 309.442 650.336C309.442 649.928 309.442 649.55 309.442 649.202C309.442 648.854 309.442 648.492 309.442 648.116L310.42 647.9C310.42 648.196 310.42 648.47 310.42 648.722C310.42 648.974 310.42 649.228 310.42 649.484C310.42 649.74 310.42 650.024 310.42 650.336V653.978C310.42 654.406 310.51 654.728 310.69 654.944C310.874 655.16 311.154 655.268 311.53 655.268C311.678 655.268 311.84 655.244 312.016 655.196C312.192 655.144 312.348 655.064 312.484 654.956L312.568 655.826C312.488 655.886 312.38 655.94 312.244 655.988C312.108 656.032 311.958 656.066 311.794 656.09C311.63 656.118 311.462 656.132 311.29 656.132ZM308.296 650.834V650.048H312.508V650.834C312.108 650.834 311.704 650.834 311.296 650.834C310.892 650.834 310.498 650.834 310.114 650.834H309.706H308.296ZM314.328 656C314.328 655.556 314.328 655.13 314.328 654.722C314.328 654.314 314.328 653.864 314.328 653.372V652.772C314.328 652.416 314.328 652.088 314.328 651.788C314.328 651.484 314.328 651.192 314.328 650.912C314.328 650.628 314.328 650.34 314.328 650.048L315.324 650.012C315.324 650.308 315.324 650.6 315.324 650.888C315.324 651.172 315.324 651.468 315.324 651.776C315.324 652.08 315.324 652.412 315.324 652.772V653.372C315.324 653.864 315.324 654.314 315.324 654.722C315.324 655.13 315.324 655.556 315.324 656H314.328ZM314.808 648.674C314.592 648.674 314.416 648.614 314.28 648.494C314.144 648.374 314.076 648.19 314.076 647.942C314.076 647.698 314.144 647.516 314.28 647.396C314.416 647.272 314.596 647.21 314.82 647.21C315.04 647.21 315.216 647.274 315.348 647.402C315.48 647.526 315.546 647.706 315.546 647.942C315.546 648.19 315.48 648.374 315.348 648.494C315.216 648.614 315.036 648.674 314.808 648.674ZM317.758 656C317.758 655.556 317.758 655.13 317.758 654.722C317.758 654.314 317.758 653.864 317.758 653.372V652.772C317.758 652.332 317.758 651.882 317.758 651.422C317.758 650.962 317.758 650.504 317.758 650.048L318.622 649.988L318.652 651.092H318.76C318.888 650.912 319.052 650.73 319.252 650.546C319.452 650.362 319.688 650.21 319.96 650.09C320.232 649.966 320.544 649.904 320.896 649.904C321.528 649.904 321.99 650.086 322.282 650.45C322.574 650.814 322.72 651.342 322.72 652.034C322.72 652.294 322.72 652.524 322.72 652.724C322.72 652.924 322.72 653.14 322.72 653.372C322.72 653.844 322.72 654.29 322.72 654.71C322.72 655.126 322.72 655.556 322.72 656H321.73C321.73 655.556 321.73 655.128 321.73 654.716C321.73 654.3 321.73 653.866 321.73 653.414V652.286C321.73 651.81 321.644 651.45 321.472 651.206C321.304 650.962 320.998 650.84 320.554 650.84C320.286 650.84 320.042 650.894 319.822 651.002C319.602 651.11 319.402 651.256 319.222 651.44C319.046 651.62 318.888 651.82 318.748 652.04V653.414C318.748 653.882 318.748 654.32 318.748 654.728C318.748 655.132 318.748 655.556 318.748 656H317.758ZM326.892 658.436C326.448 658.436 326.078 658.396 325.782 658.316C325.486 658.236 325.252 658.128 325.08 657.992C324.908 657.856 324.784 657.704 324.708 657.536C324.636 657.372 324.6 657.204 324.6 657.032C324.6 656.764 324.666 656.538 324.798 656.354C324.93 656.174 325.084 656.032 325.26 655.928C325.436 655.824 325.59 655.752 325.722 655.712V655.628C325.654 655.608 325.572 655.566 325.476 655.502C325.38 655.434 325.294 655.34 325.218 655.22C325.142 655.1 325.104 654.948 325.104 654.764C325.104 654.624 325.13 654.494 325.182 654.374C325.238 654.254 325.322 654.148 325.434 654.056C325.546 653.964 325.684 653.884 325.848 653.816V653.726C325.756 653.694 325.638 653.634 325.494 653.546C325.35 653.458 325.204 653.34 325.056 653.192C324.912 653.04 324.79 652.854 324.69 652.634C324.59 652.414 324.54 652.154 324.54 651.854C324.54 651.466 324.634 651.126 324.822 650.834C325.014 650.542 325.284 650.316 325.632 650.156C325.984 649.992 326.396 649.91 326.868 649.91C327.06 649.91 327.226 649.92 327.366 649.94C327.51 649.96 327.658 649.982 327.81 650.006C327.962 650.026 328.148 650.036 328.368 650.036H330.222V650.78C329.826 650.78 329.44 650.78 329.064 650.78C328.688 650.78 328.31 650.78 327.93 650.78L328.212 650.312C328.564 650.48 328.816 650.704 328.968 650.984C329.124 651.26 329.202 651.572 329.202 651.92C329.202 652.312 329.122 652.644 328.962 652.916C328.802 653.184 328.576 653.402 328.284 653.57C327.992 653.734 327.652 653.86 327.264 653.948C326.844 654.048 326.532 654.14 326.328 654.224C326.124 654.304 326.022 654.426 326.022 654.59C326.022 654.706 326.064 654.796 326.148 654.86C326.232 654.924 326.364 654.97 326.544 654.998C326.728 655.026 326.97 655.04 327.27 655.04H327.528C328.08 655.04 328.532 655.084 328.884 655.172C329.236 655.256 329.496 655.398 329.664 655.598C329.836 655.798 329.922 656.064 329.922 656.396C329.922 656.74 329.832 657.04 329.652 657.296C329.472 657.556 329.232 657.77 328.932 657.938C328.632 658.106 328.304 658.23 327.948 658.31C327.596 658.394 327.244 658.436 326.892 658.436ZM326.976 657.632C327.416 657.632 327.784 657.57 328.08 657.446C328.38 657.326 328.604 657.182 328.752 657.014C328.9 656.846 328.974 656.69 328.974 656.546C328.974 656.394 328.93 656.268 328.842 656.168C328.754 656.068 328.59 655.994 328.35 655.946C328.11 655.894 327.762 655.868 327.306 655.868H327.084C326.828 655.872 326.58 655.914 326.34 655.994C326.1 656.074 325.902 656.184 325.746 656.324C325.594 656.468 325.518 656.634 325.518 656.822C325.518 656.926 325.542 657.026 325.59 657.122C325.642 657.222 325.724 657.31 325.836 657.386C325.952 657.462 326.102 657.522 326.286 657.566C326.474 657.61 326.704 657.632 326.976 657.632ZM326.802 653.246C326.95 653.222 327.108 653.186 327.276 653.138C327.448 653.086 327.608 653.014 327.756 652.922C327.908 652.83 328.032 652.708 328.128 652.556C328.224 652.404 328.272 652.212 328.272 651.98C328.272 651.692 328.198 651.458 328.05 651.278C327.902 651.098 327.718 650.966 327.498 650.882C327.282 650.794 327.072 650.75 326.868 650.75C326.624 650.75 326.396 650.794 326.184 650.882C325.972 650.966 325.8 651.096 325.668 651.272C325.536 651.444 325.47 651.662 325.47 651.926C325.47 652.19 325.534 652.414 325.662 652.598C325.794 652.782 325.96 652.928 326.16 653.036C326.364 653.144 326.578 653.214 326.802 653.246ZM333.54 656.132C333.292 656.132 333.042 656.112 332.79 656.072C332.542 656.032 332.308 655.98 332.088 655.916C331.868 655.848 331.676 655.772 331.512 655.688L331.59 654.758C331.774 654.862 331.97 654.954 332.178 655.034C332.39 655.11 332.608 655.17 332.832 655.214C333.06 655.254 333.288 655.274 333.516 655.274C333.736 655.274 333.938 655.25 334.122 655.202C334.31 655.15 334.458 655.058 334.566 654.926C334.678 654.79 334.734 654.594 334.734 654.338C334.734 654.17 334.686 654.032 334.59 653.924C334.494 653.816 334.332 653.718 334.104 653.63C333.88 653.542 333.576 653.444 333.192 653.336C332.876 653.248 332.594 653.14 332.346 653.012C332.098 652.884 331.902 652.712 331.758 652.496C331.618 652.28 331.548 651.998 331.548 651.65C331.548 651.11 331.724 650.686 332.076 650.378C332.432 650.066 332.91 649.91 333.51 649.91C333.758 649.91 333.998 649.932 334.23 649.976C334.462 650.016 334.676 650.07 334.872 650.138C335.068 650.206 335.238 650.278 335.382 650.354L335.298 651.284C335.106 651.164 334.908 651.066 334.704 650.99C334.5 650.91 334.304 650.854 334.116 650.822C333.928 650.786 333.762 650.768 333.618 650.768C333.454 650.768 333.29 650.792 333.126 650.84C332.966 650.884 332.832 650.968 332.724 651.092C332.616 651.212 332.562 651.386 332.562 651.614C332.562 651.778 332.6 651.916 332.676 652.028C332.752 652.14 332.884 652.24 333.072 652.328C333.26 652.416 333.52 652.508 333.852 652.604C334.248 652.72 334.586 652.842 334.866 652.97C335.15 653.094 335.368 653.258 335.52 653.462C335.672 653.666 335.748 653.948 335.748 654.308C335.748 654.656 335.672 654.968 335.52 655.244C335.368 655.516 335.13 655.732 334.806 655.892C334.482 656.052 334.06 656.132 333.54 656.132Z" fill="#C991E5"/>
</g>
<path d="M101 27L99 38L91 32L96.5 40L88 42.5L97 43.5L94.5 52L100.5 45.5L106 53L103.5 44L113 44.5L104.5 40.5L111 33L102 38L101 27Z" fill="#FFCB38"/>
<path d="M37 19L35 30L27 24L32.5 32L24 34.5L33 35.5L30.5 44L36.5 37.5L42 45L39.5 36L49 36.5L40.5 32.5L47 25L38 30L37 19Z" fill="#FBE3B1"/>
<path d="M321 105L319 116L311 110L316.5 118L308 120.5L317 121.5L314.5 130L320.5 123.5L326 131L323.5 122L333 122.5L324.5 118.5L331 111L322 116L321 105Z" fill="#FFCB38"/>
<path d="M293 64L291 75L283 69L288.5 77L280 79.5L289 80.5L286.5 89L292.5 82.5L298 90L295.5 81L305 81.5L296.5 77.5L303 70L294 75L293 64Z" fill="#FBE3B1"/>
<path d="M67.2 78L64.4 93.2308L53.2 84.9231L60.9 96L49 99.4615L61.6 100.846L58.1 112.615L66.5 103.615L74.2 114L70.7 101.538L84 102.231L72.1 96.6923L81.2 86.3077L68.6 93.2308L67.2 78Z" fill="#FFCB38"/>
<path d="M7.2 107L4.4 122.231L-6.8 113.923L0.9 125L-11 128.462L1.6 129.846L-1.9 141.615L6.5 132.615L14.2 143L10.7 130.538L24 131.231L12.1 125.692L21.2 115.308L8.6 122.231L7.2 107Z" fill="#FBE3B1"/>
<path d="M345.2 48L342.4 63.2308L331.2 54.9231L338.9 66L327 69.4615L339.6 70.8462L336.1 82.6154L344.5 73.6154L352.2 84L348.7 71.5385L362 72.2308L350.1 66.6923L359.2 56.3077L346.6 63.2308L345.2 48Z" fill="#FFCB38"/>
<path d="M366.2 107L363.4 122.231L352.2 113.923L359.9 125L348 128.462L360.6 129.846L357.1 141.615L365.5 132.615L373.2 143L369.7 130.538L383 131.231L371.1 125.692L380.2 115.308L367.6 122.231L366.2 107Z" fill="#FBE3B1"/>
<path d="M276.32 27L275.04 34.1923L269.92 30.2692L273.44 35.5L268 37.1346L273.76 37.7885L272.16 43.3462L276 39.0962L279.52 44L277.92 38.1154L284 38.4423L278.56 35.8269L282.72 30.9231L276.96 34.1923L276.32 27Z" fill="#FFCB38"/>
<path d="M325.32 10L324.04 17.1923L318.92 13.2692L322.44 18.5L317 20.1346L322.76 20.7885L321.16 26.3462L325 22.0962L328.52 27L326.92 21.1154L333 21.4423L327.56 18.8269L331.72 13.9231L325.96 17.1923L325.32 10Z" fill="#FBE3B1"/>
<path d="M215.32 7L214.04 14.1923L208.92 10.2692L212.44 15.5L207 17.1346L212.76 17.7885L211.16 23.3462L215 19.0962L218.52 24L216.92 18.1154L223 18.4423L217.56 15.8269L221.72 10.9231L215.96 14.1923L215.32 7Z" fill="#FBE3B1"/>
<path d="M152.32 27L151.04 34.1923L145.92 30.2692L149.44 35.5L144 37.1346L149.76 37.7885L148.16 43.3462L152 39.0962L155.52 44L153.92 38.1154L160 38.4423L154.56 35.8269L158.72 30.9231L152.96 34.1923L152.32 27Z" fill="#FBE3B1"/>
<path d="M19.32 63L18.04 70.1923L12.92 66.2692L16.44 71.5L11 73.1346L16.76 73.7885L15.16 79.3462L19 75.0962L22.52 80L20.92 74.1154L27 74.4423L21.56 71.8269L25.72 66.9231L19.96 70.1923L19.32 63Z" fill="#FFCB38"/>
<path d="M127.32 -7L126.04 0.192307L120.92 -3.73077L124.44 1.5L119 3.13461L124.76 3.78846L123.16 9.34615L127 5.09615L130.52 10L128.92 4.11538L135 4.44231L129.56 1.82692L133.72 -3.07692L127.96 0.192307L127.32 -7Z" fill="#FBE3B1"/>
<path fill-rule="evenodd" clip-rule="evenodd" d="M188.398 133.611C191.066 123.62 188.97 112.529 181.797 104.025C174.624 95.5211 164.044 91.5859 153.747 92.5325C151.078 102.523 153.174 113.614 160.347 122.118C167.521 130.622 178.1 134.557 188.398 133.611Z" fill="#ED642B"/>
<path fill-rule="evenodd" clip-rule="evenodd" d="M222.963 92.4729C225.686 102.449 223.652 113.551 216.526 122.095C209.4 130.638 198.843 134.632 188.54 133.743C185.816 123.767 187.85 112.664 194.976 104.121C202.102 95.5771 212.66 91.5834 222.963 92.4729Z" fill="#ED642B"/>
<path fill-rule="evenodd" clip-rule="evenodd" d="M187.787 133.741C196.269 127.825 201.818 117.996 201.818 106.871C201.818 95.7453 196.269 85.9161 187.787 80C179.306 85.9161 173.756 95.7453 173.756 106.871C173.756 117.996 179.306 127.825 187.787 133.741Z" fill="#DE5126"/>
<path fill-rule="evenodd" clip-rule="evenodd" d="M188.541 133.664C185.022 123.941 176.964 116.036 166.218 113.157C155.472 110.278 144.541 113.094 136.631 119.755C140.151 129.479 148.209 137.383 158.955 140.263C169.701 143.142 180.632 140.326 188.541 133.664Z" fill="#DE5126"/>
<path fill-rule="evenodd" clip-rule="evenodd" d="M187.392 133.602C190.924 123.883 198.992 115.989 209.742 113.123C220.492 110.258 231.419 113.088 239.32 119.76C235.788 129.479 227.72 137.373 216.97 140.238C206.22 143.104 195.293 140.273 187.392 133.602Z" fill="#DE5126"/>
<path d="M179.403 96C177.132 103.286 176.552 109.11 178.765 115.77" stroke="#FCF9FD" stroke-width="2" stroke-linecap="round"/>
<path d="M181.748 90.8526C182.469 89.4578 183.718 87.8013 184.252 87.1474" stroke="white" stroke-width="2" stroke-linecap="round"/>
<g filter="url(#filter4_d_57_1715)">
<rect x="24" y="268" width="327" height="129" rx="16" fill="#FCF9FD"/>
</g>
<rect x="40" y="284" width="72" height="24" rx="8" fill="#FAF4FE"/>
<path d="M51.4588 292.727V300H50.358V293.828H50.3153L48.5753 294.964V293.913L50.3899 292.727H51.4588ZM53.4261 300V299.205L55.8871 296.655C56.1499 296.378 56.3665 296.135 56.5369 295.927C56.7098 295.716 56.8388 295.516 56.924 295.327C57.0092 295.137 57.0518 294.936 57.0518 294.723C57.0518 294.482 56.995 294.273 56.8814 294.098C56.7678 293.92 56.6127 293.784 56.4162 293.69C56.2197 293.593 55.9983 293.544 55.7521 293.544C55.4917 293.544 55.2644 293.597 55.0703 293.704C54.8762 293.81 54.727 293.961 54.6229 294.155C54.5187 294.349 54.4666 294.576 54.4666 294.837H53.419C53.419 294.394 53.5208 294.007 53.7244 293.675C53.928 293.344 54.2074 293.087 54.5625 292.905C54.9176 292.72 55.3213 292.628 55.7734 292.628C56.2304 292.628 56.6328 292.719 56.9808 292.901C57.3312 293.081 57.6046 293.327 57.8011 293.64C57.9976 293.95 58.0959 294.3 58.0959 294.691C58.0959 294.961 58.045 295.225 57.9432 295.483C57.8438 295.741 57.6697 296.029 57.4212 296.346C57.1726 296.661 56.8269 297.043 56.3842 297.493L54.9389 299.006V299.059H58.2131V300H53.4261ZM68.3453 295.092H67.2374C67.1948 294.856 67.1155 294.647 66.9995 294.467C66.8835 294.287 66.7414 294.135 66.5733 294.009C66.4052 293.884 66.217 293.789 66.0087 293.725C65.8027 293.661 65.5837 293.629 65.3517 293.629C64.9327 293.629 64.5575 293.735 64.226 293.945C63.897 294.156 63.6365 294.465 63.4448 294.872C63.2554 295.279 63.1607 295.777 63.1607 296.364C63.1607 296.955 63.2554 297.455 63.4448 297.862C63.6365 298.269 63.8981 298.577 64.2296 298.786C64.561 298.994 64.9339 299.098 65.3482 299.098C65.5778 299.098 65.7956 299.067 66.0016 299.006C66.2099 298.942 66.3981 298.848 66.5662 298.725C66.7343 298.602 66.8764 298.452 66.9924 298.274C67.1107 298.094 67.1924 297.888 67.2374 297.656L68.3453 297.66C68.2862 298.017 68.1713 298.346 68.0009 298.647C67.8328 298.945 67.6162 299.203 67.351 299.421C67.0882 299.637 66.7876 299.804 66.449 299.922C66.1105 300.04 65.7412 300.099 65.3411 300.099C64.7114 300.099 64.1503 299.95 63.6578 299.652C63.1654 299.351 62.7772 298.922 62.4931 298.363C62.2114 297.804 62.0705 297.138 62.0705 296.364C62.0705 295.587 62.2125 294.921 62.4966 294.364C62.7807 293.806 63.169 293.377 63.6614 293.079C64.1538 292.778 64.7137 292.628 65.3411 292.628C65.727 292.628 66.0868 292.683 66.4206 292.795C66.7568 292.904 67.0587 293.065 67.3262 293.278C67.5937 293.488 67.815 293.746 67.9902 294.052C68.1654 294.355 68.2838 294.702 68.3453 295.092ZM70.7557 292.727V300H69.6584V292.727H70.7557ZM72.3537 300V292.727H74.946C75.5095 292.727 75.977 292.824 76.3487 293.018C76.7228 293.213 77.0021 293.481 77.1868 293.825C77.3714 294.165 77.4638 294.56 77.4638 295.007C77.4638 295.452 77.3703 295.844 77.1832 296.183C76.9986 296.519 76.7192 296.78 76.3452 296.967C75.9735 297.154 75.5059 297.248 74.9425 297.248H72.9787V296.303H74.843C75.1982 296.303 75.487 296.252 75.7095 296.151C75.9344 296.049 76.099 295.901 76.2031 295.707C76.3073 295.513 76.3594 295.279 76.3594 295.007C76.3594 294.732 76.3061 294.495 76.1996 294.293C76.0954 294.092 75.9309 293.938 75.706 293.832C75.4834 293.723 75.1911 293.668 74.8288 293.668H73.451V300H72.3537ZM75.9439 296.719L77.7408 300H76.4908L74.7294 296.719H75.9439ZM84.8395 295.092H83.7315C83.6889 294.856 83.6096 294.647 83.4936 294.467C83.3776 294.287 83.2356 294.135 83.0675 294.009C82.8994 293.884 82.7112 293.789 82.5028 293.725C82.2969 293.661 82.0779 293.629 81.8459 293.629C81.4268 293.629 81.0516 293.735 80.7202 293.945C80.3911 294.156 80.1307 294.465 79.9389 294.872C79.7495 295.279 79.6548 295.777 79.6548 296.364C79.6548 296.955 79.7495 297.455 79.9389 297.862C80.1307 298.269 80.3923 298.577 80.7237 298.786C81.0552 298.994 81.428 299.098 81.8423 299.098C82.072 299.098 82.2898 299.067 82.4957 299.006C82.7041 298.942 82.8923 298.848 83.0604 298.725C83.2285 298.602 83.3705 298.452 83.4865 298.274C83.6049 298.094 83.6866 297.888 83.7315 297.656L84.8395 297.66C84.7803 298.017 84.6655 298.346 84.495 298.647C84.3269 298.945 84.1103 299.203 83.8452 299.421C83.5824 299.637 83.2817 299.804 82.9432 299.922C82.6046 300.04 82.2353 300.099 81.8352 300.099C81.2055 300.099 80.6444 299.95 80.152 299.652C79.6596 299.351 79.2713 298.922 78.9872 298.363C78.7055 297.804 78.5646 297.138 78.5646 296.364C78.5646 295.587 78.7067 294.921 78.9908 294.364C79.2749 293.806 79.6631 293.377 80.1555 293.079C80.648 292.778 81.2079 292.628 81.8352 292.628C82.2211 292.628 82.581 292.683 82.9148 292.795C83.2509 292.904 83.5528 293.065 83.8203 293.278C84.0878 293.488 84.3092 293.746 84.4844 294.052C84.6596 294.355 84.7779 294.702 84.8395 295.092ZM86.1525 300V292.727H87.2498V299.055H90.5453V300H86.1525ZM91.7971 300V292.727H96.3567V293.672H92.8944V295.888H96.1188V296.829H92.8944V299.055H96.3993V300H91.7971ZM101.789 294.638C101.751 294.302 101.595 294.041 101.32 293.857C101.046 293.67 100.7 293.576 100.283 293.576C99.9851 293.576 99.727 293.623 99.5092 293.718C99.2914 293.81 99.1222 293.938 99.0014 294.102C98.883 294.263 98.8239 294.446 98.8239 294.652C98.8239 294.825 98.8641 294.974 98.9446 295.099C99.0275 295.225 99.1352 295.33 99.2678 295.415C99.4027 295.498 99.5471 295.568 99.701 295.625C99.8549 295.679 100.003 295.724 100.145 295.76L100.855 295.945C101.087 296.001 101.325 296.078 101.569 296.175C101.813 296.272 102.039 296.4 102.247 296.559C102.455 296.718 102.624 296.914 102.751 297.148C102.882 297.383 102.947 297.663 102.947 297.99C102.947 298.402 102.84 298.768 102.627 299.087C102.416 299.407 102.11 299.659 101.707 299.844C101.307 300.028 100.823 300.121 100.255 300.121C99.7105 300.121 99.2393 300.034 98.8416 299.862C98.4439 299.689 98.1326 299.444 97.9077 299.126C97.6828 298.807 97.5585 298.428 97.5348 297.99H98.6357C98.657 298.253 98.7422 298.472 98.8913 298.647C99.0429 298.82 99.2358 298.949 99.4702 299.034C99.7069 299.117 99.9661 299.158 100.248 299.158C100.558 299.158 100.834 299.11 101.075 299.013C101.319 298.913 101.511 298.776 101.651 298.601C101.79 298.423 101.86 298.216 101.86 297.979C101.86 297.764 101.799 297.588 101.675 297.45C101.555 297.313 101.39 297.199 101.182 297.109C100.976 297.019 100.743 296.94 100.482 296.871L99.6229 296.637C99.0405 296.478 98.5788 296.245 98.2379 295.938C97.8994 295.63 97.7301 295.223 97.7301 294.716C97.7301 294.297 97.8438 293.931 98.071 293.619C98.2983 293.306 98.6061 293.063 98.9943 292.891C99.3826 292.715 99.8205 292.628 100.308 292.628C100.801 292.628 101.235 292.714 101.612 292.887C101.99 293.06 102.289 293.298 102.506 293.601C102.724 293.902 102.838 294.247 102.847 294.638H101.789Z" fill="#C591DF"/>
<path d="M45.04 342.66C45.3467 342.727 45.62 342.813 45.86 342.92C46.1 343.027 46.3333 343.133 46.56 343.24V344H40.4V343.24C40.6933 343.08 40.9733 342.96 41.24 342.88C41.5067 342.787 41.7733 342.713 42.04 342.66V331.34C41.3733 331.193 40.8267 331 40.4 330.76V330H42.52C42.7867 330 43.0867 329.993 43.42 329.98C43.7667 329.967 44.1267 329.953 44.5 329.94C44.8733 329.913 45.2533 329.893 45.64 329.88C46.0267 329.853 46.4 329.84 46.76 329.84C47.4933 329.84 48.1667 329.927 48.78 330.1C49.4067 330.26 49.94 330.507 50.38 330.84C50.8333 331.173 51.18 331.593 51.42 332.1C51.6733 332.593 51.8 333.173 51.8 333.84C51.8 334.8 51.5667 335.587 51.1 336.2C50.6333 336.813 49.9933 337.273 49.18 337.58C49.7133 338.42 50.28 339.28 50.88 340.16C51.48 341.027 52.1133 341.867 52.78 342.68L53.74 343.32V344H50.4L49.54 343.34C48.9267 342.607 48.38 341.76 47.9 340.8C47.4333 339.827 47.02 338.873 46.66 337.94H45.04V342.66ZM46.04 331.14C45.6267 331.14 45.2933 331.18 45.04 331.26V336.84H46.22C46.9 336.84 47.48 336.6 47.96 336.12C48.44 335.627 48.68 334.9 48.68 333.94C48.68 333.447 48.6133 333.027 48.48 332.68C48.3467 332.32 48.16 332.027 47.92 331.8C47.68 331.573 47.4 331.407 47.08 331.3C46.76 331.193 46.4133 331.14 46.04 331.14ZM63.6653 342.32C63.5586 342.547 63.3853 342.78 63.1453 343.02C62.9186 343.247 62.632 343.453 62.2853 343.64C61.952 343.813 61.5586 343.953 61.1053 344.06C60.6653 344.18 60.1853 344.24 59.6653 344.24C58.8386 344.24 58.1053 344.12 57.4653 343.88C56.8253 343.627 56.292 343.273 55.8653 342.82C55.4386 342.353 55.112 341.8 54.8853 341.16C54.672 340.52 54.5653 339.8 54.5653 339C54.5653 337.293 55.012 335.993 55.9053 335.1C56.7986 334.207 58.0386 333.76 59.6253 333.76C60.3053 333.76 60.9386 333.853 61.5253 334.04C62.1253 334.227 62.6186 334.533 63.0053 334.96C63.4053 335.387 63.6786 335.947 63.8253 336.64C63.9853 337.333 63.9786 338.18 63.8053 339.18H57.6653C57.6786 340.233 57.9453 341.073 58.4653 341.7C58.9986 342.327 59.7786 342.64 60.8053 342.64C61.2453 342.64 61.6986 342.573 62.1653 342.44C62.6453 342.307 63.0186 342.133 63.2853 341.92L63.6653 342.32ZM59.5453 334.9C59.2786 334.9 59.0386 334.947 58.8253 335.04C58.6253 335.133 58.4453 335.307 58.2853 335.56C58.1386 335.8 58.0186 336.133 57.9253 336.56C57.832 336.973 57.7653 337.5 57.7253 338.14H60.9453C61.0386 337.1 60.9786 336.3 60.7653 335.74C60.552 335.18 60.1453 334.9 59.5453 334.9ZM70.8275 344H65.3075V343.22C65.7475 343.007 66.1875 342.847 66.6275 342.74V330.62L65.1075 330.46V329.68C65.2808 329.6 65.5208 329.52 65.8275 329.44C66.1342 329.36 66.4608 329.293 66.8075 329.24C67.1675 329.173 67.5208 329.12 67.8675 329.08C68.2275 329.027 68.5475 328.987 68.8275 328.96H69.5075V342.74C69.9475 342.847 70.3875 343.007 70.8275 343.22V344ZM80.7281 341.1C80.7281 341.393 80.7281 341.647 80.7281 341.86C80.7415 342.073 80.7615 342.3 80.7881 342.54L82.1681 342.74V343.44C82.0081 343.52 81.7881 343.6 81.5081 343.68C81.2415 343.76 80.9548 343.84 80.6481 343.92C80.3548 343.987 80.0615 344.04 79.7681 344.08C79.4748 344.133 79.2148 344.173 78.9881 344.2H78.3081C78.1748 343.893 78.0948 343.587 78.0681 343.28C78.0415 342.973 78.0215 342.6 78.0081 342.16H77.9081C77.8415 342.427 77.7281 342.687 77.5681 342.94C77.4081 343.18 77.2015 343.4 76.9481 343.6C76.7081 343.787 76.4215 343.94 76.0881 344.06C75.7548 344.18 75.3815 344.24 74.9681 344.24C74.5281 344.24 74.1215 344.173 73.7481 344.04C73.3748 343.907 73.0481 343.72 72.7681 343.48C72.4881 343.24 72.2681 342.953 72.1081 342.62C71.9481 342.273 71.8681 341.887 71.8681 341.46C71.8681 340.86 71.9815 340.367 72.2081 339.98C72.4348 339.593 72.7881 339.28 73.2681 339.04C73.7615 338.787 74.3881 338.6 75.1481 338.48C75.9215 338.36 76.8548 338.273 77.9481 338.22C78.0548 337.073 78.0081 336.233 77.8081 335.7C77.6081 335.167 77.1748 334.9 76.5081 334.9C76.0948 334.9 75.7148 334.967 75.3681 335.1L74.4281 337.5H73.5481C73.4415 337.34 73.3348 337.16 73.2281 336.96C73.1348 336.747 73.0415 336.527 72.9481 336.3C72.8681 336.06 72.7948 335.82 72.7281 335.58C72.6748 335.34 72.6348 335.107 72.6081 334.88C73.1148 334.533 73.7681 334.26 74.5681 334.06C75.3681 333.86 76.2148 333.76 77.1081 333.76C77.8681 333.76 78.4881 333.847 78.9681 334.02C79.4481 334.18 79.8215 334.407 80.0881 334.7C80.3681 334.98 80.5615 335.313 80.6681 335.7C80.7748 336.087 80.8281 336.5 80.8281 336.94C80.8281 337.74 80.8081 338.467 80.7681 339.12C80.7415 339.76 80.7281 340.42 80.7281 341.1ZM76.2281 342.64C76.5081 342.64 76.7481 342.587 76.9481 342.48C77.1481 342.373 77.3148 342.247 77.4481 342.1C77.5948 341.953 77.7015 341.793 77.7681 341.62C77.8481 341.447 77.9081 341.293 77.9481 341.16V339.16C77.3215 339.173 76.8081 339.213 76.4081 339.28C76.0081 339.347 75.6948 339.46 75.4681 339.62C75.2415 339.767 75.0815 339.96 74.9881 340.2C74.9081 340.427 74.8681 340.707 74.8681 341.04C74.8681 341.547 74.9881 341.94 75.2281 342.22C75.4681 342.5 75.8015 342.64 76.2281 342.64ZM89.3209 338.64L92.4809 342.74C92.8276 342.847 93.1543 343.007 93.4609 343.22V344H88.3609V343.24C88.5076 343.133 88.6543 343.04 88.8009 342.96C88.9609 342.867 89.1209 342.793 89.2809 342.74L87.3809 340.02L85.5409 342.74C85.7276 342.807 85.8876 342.88 86.0209 342.96C86.1676 343.04 86.3076 343.127 86.4409 343.22V344H82.6609V343.22C82.8476 343.113 83.0143 343.02 83.1609 342.94C83.3209 342.86 83.5009 342.793 83.7009 342.74L86.6609 339.06L83.6809 335.26C83.4943 335.193 83.3276 335.127 83.1809 335.06C83.0343 334.98 82.9009 334.887 82.7809 334.78V334H87.8009V334.76C87.6409 334.867 87.4943 334.967 87.3609 335.06C87.2409 335.14 87.0876 335.207 86.9009 335.26L88.6409 337.74L90.3009 335.26C90.0743 335.193 89.8943 335.12 89.7609 335.04C89.6276 334.96 89.5076 334.873 89.4009 334.78V334H93.1009V334.78C92.9676 334.873 92.8209 334.96 92.6609 335.04C92.5009 335.12 92.3009 335.193 92.0609 335.26L89.3209 338.64ZM100.383 330.62L98.863 330.46V329.68C99.063 329.6 99.323 329.52 99.643 329.44C99.9763 329.36 100.316 329.293 100.663 329.24C101.023 329.173 101.37 329.12 101.703 329.08C102.05 329.027 102.343 328.987 102.583 328.96H103.263V335.88H103.303C103.57 335.213 103.976 334.693 104.523 334.32C105.07 333.947 105.716 333.76 106.463 333.76C107.636 333.76 108.55 334.167 109.203 334.98C109.856 335.793 110.183 337.027 110.183 338.68C110.183 340.507 109.696 341.88 108.723 342.8C107.763 343.72 106.35 344.18 104.483 344.18C104.15 344.18 103.776 344.153 103.363 344.1C102.95 344.06 102.55 344.007 102.163 343.94C101.776 343.873 101.416 343.793 101.083 343.7C100.763 343.607 100.53 343.513 100.383 343.42V330.62ZM105.163 335.36C104.656 335.36 104.25 335.547 103.943 335.92C103.636 336.28 103.41 336.74 103.263 337.3V342.6C103.45 342.733 103.676 342.84 103.943 342.92C104.223 343 104.536 343.04 104.883 343.04C105.643 343.04 106.196 342.7 106.543 342.02C106.903 341.34 107.083 340.273 107.083 338.82C107.083 337.767 106.936 336.927 106.643 336.3C106.363 335.673 105.87 335.36 105.163 335.36ZM116.601 336.3C116.441 336.38 116.254 336.513 116.041 336.7C115.827 336.887 115.634 337.193 115.461 337.62V342.74C115.727 342.767 115.994 342.82 116.261 342.9C116.527 342.967 116.794 343.073 117.061 343.22V344H111.261V343.22C111.501 343.087 111.727 342.987 111.941 342.92C112.154 342.853 112.367 342.793 112.581 342.74V335.42L111.261 335.26V334.48C111.474 334.387 111.734 334.3 112.041 334.22C112.361 334.14 112.687 334.073 113.021 334.02C113.354 333.953 113.674 333.9 113.981 333.86C114.301 333.82 114.567 333.787 114.781 333.76H115.461V336.42H115.541C115.647 336.127 115.801 335.82 116.001 335.5C116.214 335.18 116.461 334.887 116.741 334.62C117.021 334.353 117.327 334.14 117.661 333.98C117.994 333.82 118.341 333.747 118.701 333.76C118.847 333.947 118.974 334.213 119.081 334.56C119.187 334.893 119.274 335.213 119.341 335.52V336.3H116.601ZM129.134 342.32C129.027 342.547 128.854 342.78 128.614 343.02C128.387 343.247 128.101 343.453 127.754 343.64C127.421 343.813 127.027 343.953 126.574 344.06C126.134 344.18 125.654 344.24 125.134 344.24C124.307 344.24 123.574 344.12 122.934 343.88C122.294 343.627 121.761 343.273 121.334 342.82C120.907 342.353 120.581 341.8 120.354 341.16C120.141 340.52 120.034 339.8 120.034 339C120.034 337.293 120.481 335.993 121.374 335.1C122.267 334.207 123.507 333.76 125.094 333.76C125.774 333.76 126.407 333.853 126.994 334.04C127.594 334.227 128.087 334.533 128.474 334.96C128.874 335.387 129.147 335.947 129.294 336.64C129.454 337.333 129.447 338.18 129.274 339.18H123.134C123.147 340.233 123.414 341.073 123.934 341.7C124.467 342.327 125.247 342.64 126.274 342.64C126.714 342.64 127.167 342.573 127.634 342.44C128.114 342.307 128.487 342.133 128.754 341.92L129.134 342.32ZM125.014 334.9C124.747 334.9 124.507 334.947 124.294 335.04C124.094 335.133 123.914 335.307 123.754 335.56C123.607 335.8 123.487 336.133 123.394 336.56C123.301 336.973 123.234 337.5 123.194 338.14H126.414C126.507 337.1 126.447 336.3 126.234 335.74C126.021 335.18 125.614 334.9 125.014 334.9ZM139.556 341.1C139.556 341.393 139.556 341.647 139.556 341.86C139.57 342.073 139.59 342.3 139.616 342.54L140.996 342.74V343.44C140.836 343.52 140.616 343.6 140.336 343.68C140.07 343.76 139.783 343.84 139.476 343.92C139.183 343.987 138.89 344.04 138.596 344.08C138.303 344.133 138.043 344.173 137.816 344.2H137.136C137.003 343.893 136.923 343.587 136.896 343.28C136.87 342.973 136.85 342.6 136.836 342.16H136.736C136.67 342.427 136.556 342.687 136.396 342.94C136.236 343.18 136.03 343.4 135.776 343.6C135.536 343.787 135.25 343.94 134.916 344.06C134.583 344.18 134.21 344.24 133.796 344.24C133.356 344.24 132.95 344.173 132.576 344.04C132.203 343.907 131.876 343.72 131.596 343.48C131.316 343.24 131.096 342.953 130.936 342.62C130.776 342.273 130.696 341.887 130.696 341.46C130.696 340.86 130.81 340.367 131.036 339.98C131.263 339.593 131.616 339.28 132.096 339.04C132.59 338.787 133.216 338.6 133.976 338.48C134.75 338.36 135.683 338.273 136.776 338.22C136.883 337.073 136.836 336.233 136.636 335.7C136.436 335.167 136.003 334.9 135.336 334.9C134.923 334.9 134.543 334.967 134.196 335.1L133.256 337.5H132.376C132.27 337.34 132.163 337.16 132.056 336.96C131.963 336.747 131.87 336.527 131.776 336.3C131.696 336.06 131.623 335.82 131.556 335.58C131.503 335.34 131.463 335.107 131.436 334.88C131.943 334.533 132.596 334.26 133.396 334.06C134.196 333.86 135.043 333.76 135.936 333.76C136.696 333.76 137.316 333.847 137.796 334.02C138.276 334.18 138.65 334.407 138.916 334.7C139.196 334.98 139.39 335.313 139.496 335.7C139.603 336.087 139.656 336.5 139.656 336.94C139.656 337.74 139.636 338.467 139.596 339.12C139.57 339.76 139.556 340.42 139.556 341.1ZM135.056 342.64C135.336 342.64 135.576 342.587 135.776 342.48C135.976 342.373 136.143 342.247 136.276 342.1C136.423 341.953 136.53 341.793 136.596 341.62C136.676 341.447 136.736 341.293 136.776 341.16V339.16C136.15 339.173 135.636 339.213 135.236 339.28C134.836 339.347 134.523 339.46 134.296 339.62C134.07 339.767 133.91 339.96 133.816 340.2C133.736 340.427 133.696 340.707 133.696 341.04C133.696 341.547 133.816 341.94 134.056 342.22C134.296 342.5 134.63 342.64 135.056 342.64ZM141.449 334.48C141.956 334.16 142.489 333.933 143.049 333.8V332.18C143.156 332.1 143.416 331.987 143.829 331.84C144.256 331.68 144.729 331.553 145.249 331.46H145.929V334H148.569V335.26H145.929V340.44C145.929 341.267 146.029 341.84 146.229 342.16C146.442 342.48 146.789 342.64 147.269 342.64C147.509 342.64 147.776 342.627 148.069 342.6C148.376 342.56 148.656 342.493 148.909 342.4L149.049 343.06C148.929 343.18 148.749 343.307 148.509 343.44C148.282 343.573 148.016 343.7 147.709 343.82C147.416 343.94 147.089 344.04 146.729 344.12C146.382 344.2 146.016 344.24 145.629 344.24C144.762 344.24 144.116 344.013 143.689 343.56C143.262 343.107 143.049 342.373 143.049 341.36V335.26H141.449V334.48ZM161.837 344H156.537V343.22C156.697 343.127 156.864 343.04 157.037 342.96C157.211 342.88 157.411 342.807 157.637 342.74V338.7C157.637 337.553 157.524 336.713 157.297 336.18C157.084 335.633 156.657 335.36 156.017 335.36C155.484 335.36 155.031 335.547 154.657 335.92C154.284 336.28 154.017 336.7 153.857 337.18V342.74C154.071 342.793 154.257 342.853 154.417 342.92C154.591 342.987 154.771 343.087 154.957 343.22V344H149.657V343.22C150.071 343.007 150.511 342.847 150.977 342.74V330.62L149.457 330.46V329.68C149.657 329.6 149.911 329.52 150.217 329.44C150.537 329.36 150.871 329.293 151.217 329.24C151.564 329.173 151.911 329.12 152.257 329.08C152.604 329.027 152.911 328.987 153.177 328.96H153.857V336.02H153.877C154.011 335.713 154.191 335.427 154.417 335.16C154.644 334.88 154.897 334.64 155.177 334.44C155.471 334.227 155.784 334.06 156.117 333.94C156.451 333.82 156.804 333.76 157.177 333.76C157.711 333.76 158.184 333.827 158.597 333.96C159.024 334.08 159.377 334.3 159.657 334.62C159.937 334.94 160.151 335.373 160.297 335.92C160.444 336.453 160.517 337.133 160.517 337.96V342.74C160.744 342.793 160.971 342.853 161.197 342.92C161.424 342.987 161.637 343.087 161.837 343.22V344ZM168.21 344H162.69V343.22C162.89 343.113 163.097 343.027 163.31 342.96C163.524 342.88 163.757 342.807 164.01 342.74V335.42L162.69 335.26V334.48C162.89 334.4 163.137 334.32 163.43 334.24C163.737 334.16 164.057 334.093 164.39 334.04C164.724 333.973 165.05 333.92 165.37 333.88C165.69 333.827 165.97 333.787 166.21 333.76H166.89V342.74C167.157 342.807 167.397 342.88 167.61 342.96C167.824 343.027 168.024 343.113 168.21 343.22V344ZM163.67 330.72C163.67 330.253 163.83 329.887 164.15 329.62C164.47 329.353 164.884 329.22 165.39 329.22C165.897 329.22 166.31 329.353 166.63 329.62C166.95 329.887 167.11 330.253 167.11 330.72C167.11 331.173 166.95 331.533 166.63 331.8C166.31 332.067 165.897 332.2 165.39 332.2C164.884 332.2 164.47 332.067 164.15 331.8C163.83 331.533 163.67 331.173 163.67 330.72ZM181.351 344H176.051V343.22C176.224 343.127 176.391 343.047 176.551 342.98C176.724 342.9 176.924 342.82 177.151 342.74V338.04C177.151 337.2 177.031 336.547 176.791 336.08C176.551 335.6 176.124 335.36 175.511 335.36C175.004 335.36 174.564 335.527 174.191 335.86C173.831 336.18 173.558 336.62 173.371 337.18V342.74C173.584 342.793 173.771 342.86 173.931 342.94C174.104 343.007 174.284 343.1 174.471 343.22V344H169.171V343.22C169.504 343.047 169.944 342.887 170.491 342.74V335.42L169.171 335.26V334.48C169.344 334.4 169.571 334.327 169.851 334.26C170.131 334.18 170.431 334.107 170.751 334.04C171.084 333.973 171.418 333.92 171.751 333.88C172.098 333.827 172.411 333.787 172.691 333.76H173.371V335.82H173.391C173.671 335.26 174.091 334.78 174.651 334.38C175.211 333.967 175.891 333.76 176.691 333.76C177.211 333.76 177.678 333.827 178.091 333.96C178.504 334.08 178.851 334.3 179.131 334.62C179.424 334.94 179.644 335.373 179.791 335.92C179.951 336.453 180.031 337.133 180.031 337.96V342.74C180.564 342.833 181.004 342.993 181.351 343.22V344ZM186.862 333.76C187.729 333.76 188.449 333.853 189.022 334.04C189.595 334.213 190.029 334.433 190.322 334.7C190.949 334.02 191.669 333.547 192.482 333.28C192.575 333.347 192.669 333.447 192.762 333.58C192.855 333.7 192.935 333.833 193.002 333.98C193.069 334.127 193.122 334.273 193.162 334.42C193.202 334.567 193.222 334.687 193.222 334.78L192.962 335.26H190.862C191.009 335.447 191.142 335.693 191.262 336C191.395 336.293 191.462 336.647 191.462 337.06C191.462 337.5 191.369 337.913 191.182 338.3C190.995 338.687 190.709 339.033 190.322 339.34C189.949 339.633 189.469 339.867 188.882 340.04C188.309 340.213 187.635 340.3 186.862 340.3C186.635 340.3 186.429 340.3 186.242 340.3C186.069 340.287 185.915 340.267 185.782 340.24C185.729 340.32 185.669 340.42 185.602 340.54C185.549 340.647 185.522 340.753 185.522 340.86C185.522 341.087 185.682 341.267 186.002 341.4C186.322 341.533 186.729 341.653 187.222 341.76C187.715 341.867 188.242 341.987 188.802 342.12C189.375 342.253 189.909 342.433 190.402 342.66C190.895 342.873 191.309 343.16 191.642 343.52C191.975 343.867 192.149 344.32 192.162 344.88C192.175 345.413 192.042 345.887 191.762 346.3C191.482 346.713 191.095 347.06 190.602 347.34C190.122 347.633 189.549 347.853 188.882 348C188.229 348.16 187.529 348.24 186.782 348.24C185.902 348.24 185.149 348.167 184.522 348.02C183.909 347.887 183.409 347.7 183.022 347.46C182.635 347.22 182.349 346.947 182.162 346.64C181.989 346.333 181.902 346.013 181.902 345.68C181.902 345.307 181.975 344.987 182.122 344.72C182.269 344.453 182.475 344.22 182.742 344.02C183.009 343.82 183.315 343.653 183.662 343.52C184.022 343.387 184.415 343.267 184.842 343.16C184.642 343.107 184.449 343.04 184.262 342.96C184.075 342.88 183.909 342.787 183.762 342.68C183.615 342.56 183.495 342.427 183.402 342.28C183.309 342.12 183.262 341.94 183.262 341.74C183.262 341.567 183.315 341.4 183.422 341.24C183.529 341.067 183.669 340.913 183.842 340.78C184.015 340.633 184.202 340.507 184.402 340.4C184.602 340.28 184.802 340.18 185.002 340.1C184.162 339.913 183.495 339.553 183.002 339.02C182.509 338.473 182.262 337.78 182.262 336.94C182.262 335.94 182.675 335.16 183.502 334.6C184.329 334.04 185.449 333.76 186.862 333.76ZM189.382 345.52C189.382 345.16 189.269 344.867 189.042 344.64C188.829 344.427 188.549 344.247 188.202 344.1C187.855 343.967 187.462 343.853 187.022 343.76C186.595 343.653 186.169 343.533 185.742 343.4C185.395 343.667 185.149 343.933 185.002 344.2C184.855 344.467 184.782 344.787 184.782 345.16C184.782 345.773 184.989 346.247 185.402 346.58C185.829 346.927 186.422 347.1 187.182 347.1C187.929 347.1 188.482 346.94 188.842 346.62C189.202 346.313 189.382 345.947 189.382 345.52ZM185.142 337.04C185.142 337.733 185.255 338.26 185.482 338.62C185.722 338.98 186.182 339.16 186.862 339.16C187.515 339.16 187.962 338.98 188.202 338.62C188.455 338.247 188.582 337.72 188.582 337.04C188.582 336.32 188.455 335.787 188.202 335.44C187.949 335.08 187.502 334.9 186.862 334.9C186.195 334.9 185.742 335.073 185.502 335.42C185.262 335.767 185.142 336.307 185.142 337.04Z" fill="black"/>
</g>
<defs>
<filter id="filter0_b_57_1715" x="-38.2" y="572.8" width="451.4" height="132.4" filterUnits="userSpaceOnUse" color-interpolation-filters="sRGB">
<feFlood flood-opacity="0" result="BackgroundImageFix"/>
<feGaussianBlur in="BackgroundImage" stdDeviation="19.1"/>
<feComposite in2="SourceAlpha" operator="in" result="effect1_backgroundBlur_57_1715"/>
<feBlend mode="normal" in="SourceGraphic" in2="effect1_backgroundBlur_57_1715" result="shape"/>
</filter>
<filter id="filter1_bd_57_1715" x="30.5" y="599" width="64" height="64" filterUnits="userSpaceOnUse" color-interpolation-filters="sRGB">
<feFlood flood-opacity="0" result="BackgroundImageFix"/>
<feGaussianBlur in="BackgroundImage" stdDeviation="10"/>
<feComposite in2="SourceAlpha" operator="in" result="effect1_backgroundBlur_57_1715"/>
<feColorMatrix in="SourceAlpha" type="matrix" values="0 0 0 0 0 0 0 0 0 0 0 0 0 0 0 0 0 0 127 0" result="hardAlpha"/>
<feOffset dy="2"/>
<feGaussianBlur stdDeviation="3"/>
<feColorMatrix type="matrix" values="0 0 0 0 0.65098 0 0 0 0 0.341176 0 0 0 0 0.803922 0 0 0 0.3 0"/>
<feBlend mode="normal" in2="effect1_backgroundBlur_57_1715" result="effect2_dropShadow_57_1715"/>
<feBlend mode="normal" in="SourceGraphic" in2="effect2_dropShadow_57_1715" result="shape"/>
</filter>
<filter id="filter2_bd_57_1715" x="155.5" y="599" width="64" height="64" filterUnits="userSpaceOnUse" color-interpolation-filters="sRGB">
<feFlood flood-opacity="0" result="BackgroundImageFix"/>
<feGaussianBlur in="BackgroundImage" stdDeviation="10"/>
<feComposite in2="SourceAlpha" operator="in" result="effect1_backgroundBlur_57_1715"/>
<feColorMatrix in="SourceAlpha" type="matrix" values="0 0 0 0 0 0 0 0 0 0 0 0 0 0 0 0 0 0 127 0" result="hardAlpha"/>
<feOffset dy="2"/>
<feGaussianBlur stdDeviation="3"/>
<feColorMatrix type="matrix" values="0 0 0 0 0 0 0 0 0 0 0 0 0 0 0 0 0 0 0.2 0"/>
<feBlend mode="normal" in2="effect1_backgroundBlur_57_1715" result="effect2_dropShadow_57_1715"/>
<feBlend mode="normal" in="SourceGraphic" in2="effect2_dropShadow_57_1715" result="shape"/>
</filter>
<filter id="filter3_bd_57_1715" x="280.5" y="599" width="64" height="64" filterUnits="userSpaceOnUse" color-interpolation-filters="sRGB">
<feFlood flood-opacity="0" result="BackgroundImageFix"/>
<feGaussianBlur in="BackgroundImage" stdDeviation="10"/>
<feComposite in2="SourceAlpha" operator="in" result="effect1_backgroundBlur_57_1715"/>
<feColorMatrix in="SourceAlpha" type="matrix" values="0 0 0 0 0 0 0 0 0 0 0 0 0 0 0 0 0 0 127 0" result="hardAlpha"/>
<feOffset dy="2"/>
<feGaussianBlur stdDeviation="3"/>
<feColorMatrix type="matrix" values="0 0 0 0 0 0 0 0 0 0 0 0 0 0 0 0 0 0 0.2 0"/>
<feBlend mode="normal" in2="effect1_backgroundBlur_57_1715" result="effect2_dropShadow_57_1715"/>
<feBlend mode="normal" in="SourceGraphic" in2="effect2_dropShadow_57_1715" result="shape"/>
</filter>
<filter id="filter4_d_57_1715" x="-36" y="212" width="447" height="249" filterUnits="userSpaceOnUse" color-interpolation-filters="sRGB">
<feFlood flood-opacity="0" result="BackgroundImageFix"/>
<feColorMatrix in="SourceAlpha" type="matrix" values="0 0 0 0 0 0 0 0 0 0 0 0 0 0 0 0 0 0 127 0" result="hardAlpha"/>
<feOffset dy="4"/>
<feGaussianBlur stdDeviation="30"/>
<feComposite in2="hardAlpha" operator="out"/>
<feColorMatrix type="matrix" values="0 0 0 0 0 0 0 0 0 0 0 0 0 0 0 0 0 0 0.08 0"/>
<feBlend mode="normal" in2="BackgroundImageFix" result="effect1_dropShadow_57_1715"/>
<feBlend mode="normal" in="SourceGraphic" in2="effect1_dropShadow_57_1715" result="shape"/>
</filter>
<clipPath id="clip0_57_1715">
<rect width="375" height="667" fill="white"/>
</clipPath>
</defs>
</svg>
