<svg width="110" height="68" viewBox="0 0 110 68" fill="none" xmlns="http://www.w3.org/2000/svg">
<path fill-rule="evenodd" clip-rule="evenodd" d="M55.3977 53.6108C58.0662 43.62 55.9704 32.5288 48.7971 24.0249C41.6238 15.5211 31.0445 11.5859 20.7469 12.5325C18.0783 22.5233 20.1742 33.6145 27.3474 42.1184C34.5207 50.6222 45.1 54.5574 55.3977 53.6108Z" fill="#ED642B"/>
<path fill-rule="evenodd" clip-rule="evenodd" d="M89.9625 12.4729C92.6864 22.4488 90.6521 33.5514 83.526 42.0949C76.4 50.6384 65.8427 54.6321 55.5399 53.7426C52.816 43.7668 54.8504 32.6641 61.9764 24.1206C69.1025 15.5771 79.6598 11.5834 89.9625 12.4729Z" fill="#ED642B"/>
<path fill-rule="evenodd" clip-rule="evenodd" d="M54.7871 53.7411C63.2687 47.825 68.818 37.9958 68.818 26.8705C68.818 15.7453 63.2687 5.91609 54.7871 0C46.3056 5.91609 40.7563 15.7453 40.7563 26.8705C40.7563 37.9958 46.3056 47.825 54.7871 53.7411Z" fill="#DE5126"/>
<path fill-rule="evenodd" clip-rule="evenodd" d="M55.5414 53.6644C52.0221 43.9406 43.9641 36.0365 33.2179 33.157C22.4717 30.2776 11.5412 33.0938 3.63146 39.7552C7.15077 49.479 15.2088 57.3831 25.955 60.2626C36.7012 63.142 47.6317 60.3258 55.5414 53.6644Z" fill="#DE5126"/>
<path fill-rule="evenodd" clip-rule="evenodd" d="M54.3922 53.6018C57.9241 43.8826 65.9924 35.9889 76.7423 33.1234C87.4922 30.2579 98.419 33.0882 106.32 39.7599C102.788 49.4791 94.72 57.3728 83.97 60.2383C73.2201 63.1038 62.2933 60.2734 54.3922 53.6018Z" fill="#DE5126"/>
</svg>
