<svg width="223" height="223" viewBox="0 0 223 223" fill="none" xmlns="http://www.w3.org/2000/svg">
<mask id="mask0_12_1686" style="mask-type:alpha" maskUnits="userSpaceOnUse" x="0" y="0" width="223" height="223">
<circle cx="111.5" cy="111.5" r="111.5" fill="white"/>
</mask>
<g mask="url(#mask0_12_1686)">
<mask id="mask1_12_1686" style="mask-type:alpha" maskUnits="userSpaceOnUse" x="-2" y="0" width="223" height="223">
<circle cx="109.5" cy="111.5" r="111.5" fill="white"/>
</mask>
<g mask="url(#mask1_12_1686)">
<path d="M176.484 164.886C176.673 172.789 175.577 180.915 174.706 188.537C173.241 201.365 170.798 214.064 167.397 226.521H132.558C136.073 211.369 139.588 196.217 143.103 181.063L158.335 168.55C162.217 165.364 168.14 159.392 173.678 162.219C174.849 162.823 175.822 163.749 176.484 164.886Z" fill="#EFEADC" fill-opacity="0.5"/>
<rect x="82" y="67" width="52" height="21" fill="#FBBF94"/>
<path d="M143.105 181.063C139.59 196.215 136.075 211.368 132.558 226.521H130.406L126.651 153.74C126.575 152.244 126.498 150.749 126.419 149.256C127.486 149.303 128.554 149.271 129.616 149.161C135.166 148.62 139.599 148.487 144.733 145.764C148.931 143.547 152.982 140.835 157.606 139.798C165.672 138.005 172.459 144.257 174.59 151.553C175.84 155.832 176.375 160.32 176.483 164.881C175.822 163.746 174.849 162.822 173.68 162.219C168.142 159.392 162.214 165.364 158.337 168.55L143.105 181.063Z" fill="#EFEADC" fill-opacity="0.5"/>
<path d="M150.358 137.576C147.581 139.124 144.352 139.798 141.167 139.936C137.632 140.083 134.11 139.599 130.606 139.112L120.405 137.703L120.085 137.666C120.322 135.61 120.558 133.556 120.794 131.502C122.354 130.806 123.875 130.025 125.351 129.164C125.924 128.827 126.486 128.48 127.039 128.124C132.264 124.723 136.655 120.191 139.889 114.865C140.922 113.161 142.2 113.011 143.94 112.62C143.94 114.426 143.803 116.229 143.53 118.014C143.024 121.758 142.301 125.572 143.024 129.282C143.822 133.438 146.621 136.496 150.358 137.576Z" fill="#A657CD"/>
<path d="M126.423 149.256C126.499 150.75 126.576 152.245 126.654 153.74C123.532 156.761 119.917 159.23 115.964 161.039C112.018 162.821 106.082 162.516 102.203 160.785C98.382 159.049 94.8924 156.664 91.8894 153.735C91.9637 152.292 92.0374 150.849 92.1105 149.407C93.5436 149.449 95.002 149.345 95.9185 148.824C98.2141 147.519 99.031 143.642 99.0749 141.267C99.0862 140.591 99.0558 139.915 98.9838 139.244C104.652 143.161 112.205 143.696 118.272 140.344C118.825 140.038 119.364 139.707 119.889 139.351C119.799 140.133 119.709 140.914 119.619 141.695C119.463 143.055 119.315 144.485 119.847 145.741C120.925 148.317 123.724 149.117 126.423 149.256Z" fill="#FBBF94"/>
<path d="M98.5854 136.843C98.2478 135.312 97.7904 133.809 97.3212 132.306C100.623 133.54 104.102 134.329 107.618 134.441C112.074 134.582 116.626 133.353 120.795 131.502C120.56 133.556 120.324 135.61 120.086 137.666C120.024 138.23 119.958 138.797 119.892 139.362C119.369 139.718 118.83 140.049 118.275 140.354C112.209 143.706 104.655 143.171 98.9872 139.254C98.8961 138.444 98.762 137.639 98.5854 136.843Z" fill="#F7A17C"/>
<path d="M117.165 108.516C117.2 108.42 117.268 108.338 117.355 108.284C117.508 108.194 117.685 108.153 117.862 108.167L118.52 108.147C118.758 108.126 118.998 108.15 119.227 108.218C119.341 108.254 119.443 108.321 119.521 108.412C119.6 108.503 119.651 108.614 119.669 108.732C119.671 108.823 119.651 108.912 119.612 108.994C119.573 109.076 119.515 109.147 119.443 109.202C119.3 109.314 119.129 109.386 118.949 109.41C118.591 109.47 117.029 109.029 117.165 108.516Z" fill="#FBBF94"/>
<path d="M101.921 108.284C102.105 108.419 102.149 108.552 102.1 108.678C101.931 109.118 100.648 109.465 100.334 109.41C100.154 109.386 99.9831 109.314 99.8396 109.202C99.7679 109.147 99.7102 109.076 99.6709 108.994C99.6317 108.912 99.612 108.823 99.6134 108.732C99.631 108.614 99.6814 108.503 99.759 108.412C99.8366 108.321 99.9382 108.254 100.052 108.218C100.283 108.15 100.524 108.126 100.763 108.147L101.421 108.167C101.596 108.155 101.77 108.195 101.921 108.284Z" fill="#FBBF94"/>
<path d="M97.3212 132.306C97.7904 133.802 98.2546 135.312 98.5855 136.843C94.7672 135.768 90.7004 135.985 87.0181 137.458C86.1403 137.807 85.3639 138.332 84.4997 138.677C84.0384 138.861 83.566 139.015 83.0852 139.139C84.3444 138.38 85.2018 136.993 85.5394 135.542C85.9344 133.83 85.6998 132.035 85.3065 130.315C84.692 127.655 83.699 125.095 82.3577 122.716C84.3893 124.74 86.626 126.548 89.0318 128.11C89.5854 128.471 90.1509 128.817 90.7197 129.151C92.8265 130.388 95.035 131.444 97.3212 132.306Z" fill="#A657CD"/>
<path d="M75.4388 181.063L60.2053 168.55C56.323 165.363 50.4001 159.392 44.862 162.219C43.6926 162.824 42.7204 163.749 42.06 164.886C42.1663 160.323 42.7014 155.837 43.9522 151.558C46.0891 144.262 52.8695 138.01 60.9378 139.803C65.5678 140.835 69.6104 143.547 73.8049 145.764C78.9396 148.478 83.3738 148.62 88.922 149.161C89.7491 149.242 90.9189 149.377 92.1105 149.412C92.0385 150.855 91.9648 152.298 91.8894 153.74C90.6381 178 89.3868 202.26 88.1355 226.521H85.9817L75.4388 181.063Z" fill="#EFEADC" fill-opacity="0.5"/>
<path d="M75.4389 181.063L85.9817 226.521H51.1445C47.7448 214.064 45.3014 201.365 43.8357 188.537C42.9648 180.915 41.8693 172.789 42.06 164.886C42.7204 163.749 43.6926 162.824 44.862 162.219C50.4001 159.392 56.3298 165.364 60.2053 168.55L75.4389 181.063Z" fill="#EFEADC" fill-opacity="0.5"/>
<path d="M117.165 108.516C117.023 109.022 118.591 109.47 118.942 109.41C119.122 109.386 119.293 109.314 119.437 109.202C119.508 109.147 119.566 109.076 119.605 108.994C119.644 108.912 119.664 108.823 119.663 108.732C119.644 108.614 119.593 108.503 119.515 108.412C119.437 108.321 119.335 108.254 119.22 108.218C118.991 108.15 118.751 108.126 118.513 108.147L117.855 108.167C117.678 108.153 117.501 108.194 117.349 108.284C117.263 108.339 117.199 108.421 117.165 108.516ZM102.1 108.685C102.149 108.558 102.1 108.425 101.921 108.29C101.768 108.201 101.591 108.16 101.414 108.174L100.756 108.154C100.517 108.133 100.276 108.157 100.046 108.225C99.9315 108.261 99.8299 108.328 99.7523 108.419C99.6747 108.51 99.6242 108.621 99.6067 108.739C99.6052 108.829 99.6249 108.919 99.6642 109.001C99.7034 109.082 99.7612 109.154 99.8329 109.209C99.9764 109.321 100.147 109.392 100.327 109.417C100.657 109.465 101.933 109.116 102.1 108.678V108.685ZM82.351 122.731C81.4507 121.832 80.5933 120.894 79.7785 119.916C78.4545 118.325 77.2521 116.636 76.1816 114.865C75.0777 113.044 73.6986 112.992 71.7676 112.537C70.183 112.183 68.6569 111.605 67.2355 110.821C64.8083 109.444 62.7676 107.222 62.0671 104.523C62.008 104.292 61.9574 104.057 61.9202 103.82C61.5236 101.291 62.4097 98.5228 64.4673 97.0157C66.7207 95.367 70.316 95.6839 71.9398 97.9514H71.9567C72.1575 98.4301 72.8108 98.6088 73.2868 98.3981C73.7628 98.1874 74.0632 97.685 74.1645 97.1725C74.362 96.1711 74.3333 95.2001 74.5679 94.1751C74.823 93.0975 75.1616 92.0412 75.5807 91.0159C76.4381 88.9053 77.9016 87.1672 78.9835 85.1577C80.0841 83.1145 81.0968 80.81 81.3027 78.4735C81.5289 75.8925 82.2125 74.3096 84.0372 72.4687C86.1404 70.3429 88.2688 68.2997 90.0226 65.8721C91.0392 64.4753 91.889 62.9647 92.5545 61.371C92.8398 60.6764 93.3478 57.61 94.4939 58.0213C94.8568 58.1528 95.2603 59.0665 95.5067 59.3699C95.9275 59.8928 96.3856 60.3847 96.8773 60.8416C97.8959 61.7908 99.041 62.5947 100.28 63.2304C104.183 65.2365 108.691 65.7052 113.081 65.7861C115.497 65.8316 118.181 65.4001 120.54 66.302C123.052 67.2595 124.359 70.2839 126.154 72.1787C127.765 73.8763 130.016 74.6501 131.873 76.0105C134.089 77.6357 135.138 79.957 135.777 82.5599C136.453 85.2943 136.702 88.113 137.18 90.8861C138.052 95.9297 139.656 100.819 141.943 105.399C142.323 106.16 142.733 106.916 143.152 107.651C143.683 109.256 143.949 110.935 143.94 112.625C142.202 113.011 140.924 113.166 139.889 114.87C136.655 120.196 132.264 124.728 127.039 128.129C126.483 128.49 125.92 128.836 125.351 129.169C123.875 130.03 122.354 130.811 120.794 131.507C116.624 133.362 112.072 134.587 107.616 134.446C104.103 134.334 100.625 133.546 97.3195 132.312C95.035 131.453 92.8276 130.401 90.7214 129.169C90.1492 128.832 89.5837 128.495 89.0335 128.129C86.6266 126.563 84.3893 124.752 82.3577 122.724L82.351 122.731ZM129.991 79.1428C130.579 78.9051 130.893 78.2072 130.808 77.58C130.724 76.9529 130.302 76.4084 129.795 76.0274C129.088 75.4964 128.276 75.3143 127.483 75.0058C126.572 74.6197 125.636 74.2969 124.681 74.0398C123.277 73.7027 121.238 73.1868 119.816 73.5442C119.107 73.7128 118.765 73.996 118.466 74.6619C118.189 75.2823 118.589 76.0342 119.17 76.3831C120.361 77.0996 122.276 77.0574 123.623 77.3154C124.767 77.5282 125.893 77.8332 126.988 78.2274C127.908 78.5612 128.958 79.5592 129.991 79.1428ZM97.0765 76.3831C97.6571 76.0342 98.0555 75.2823 97.7803 74.6619C97.485 73.9876 97.1389 73.7212 96.43 73.5442C95.0104 73.1868 92.9697 73.6976 91.5671 74.0398C90.6121 74.2974 89.6759 74.6202 88.7651 75.0058C87.9684 75.3143 87.1616 75.4964 86.4543 76.0274C85.9479 76.4084 85.5327 76.9512 85.4416 77.58C85.3504 78.2088 85.6728 78.9051 86.2602 79.1428C87.2915 79.5592 88.3414 78.5612 89.2546 78.2274C90.3496 77.8337 91.4746 77.5287 92.6186 77.3154C93.9639 77.0591 95.8814 77.0996 97.0714 76.3831H97.0765Z" fill="#FBBF94"/>
<path d="M62.2646 108.07C62.0333 106.679 61.7582 105.285 61.5337 103.885L61.9219 103.82C61.9591 104.057 62.0097 104.292 62.0688 104.523C62.7693 107.22 64.81 109.443 67.2372 110.821C68.6576 111.605 70.1824 112.183 71.7659 112.537C73.6969 112.992 75.076 113.043 76.1799 114.865C77.2536 116.633 78.4588 118.318 79.7853 119.906C80.5989 120.883 81.4563 121.822 82.3577 122.721C83.6991 125.1 84.6921 127.66 85.3065 130.321C85.6998 132.032 85.9344 133.827 85.5395 135.547C85.2019 136.998 84.3444 138.385 83.0852 139.144C79.2975 140.134 75.0928 139.279 71.7187 137.234C67.2912 134.55 63.9643 130.233 62.9667 125.219C62.5619 123.113 62.423 120.964 62.5532 118.823C62.749 115.153 62.8705 111.735 62.2646 108.07Z" fill="#C991E5"/>
<path d="M64.469 97.0157C62.4114 98.5228 61.5253 101.293 61.9219 103.82L61.5337 103.885C61.1539 101.604 60.8703 99.3118 61.0071 96.9938C61.2653 92.6427 62.9887 88.5378 64.3542 84.3975C65.4707 81.0049 66.3549 77.5404 67.0009 74.028C67.5579 70.9936 67.6001 67.8614 68.6888 65.0005C70.7853 59.461 72.7804 54.4659 77.8509 50.9072C80.2376 49.2427 82.946 48.0943 85.8028 47.5356C88.0697 47.0905 90.4378 47.0096 92.5916 46.1111C94.5918 45.2783 96.2747 43.7863 98.2462 42.844C102.314 40.9341 106.76 39.9616 111.255 39.9983C112.33 40.0029 113.404 40.0626 114.472 40.177C121.678 40.9575 128.45 44.0291 134.336 48.1627C139.985 52.1361 143.361 58.3905 145.912 64.7274C148.118 70.2181 149.419 76.4118 153.207 81.1118C155.008 83.3506 157.481 84.6891 159.228 86.9565C162.528 91.2901 163.992 96.7445 163.306 102.146C162.968 104.708 162.145 107.215 162.124 109.801C162.101 112.962 163.954 114.568 165.181 117.193C166.457 120.004 166.892 123.123 166.432 126.175C165.477 132.278 160.776 137.408 154.461 137.956C153.083 138.083 151.694 137.954 150.363 137.576C146.626 136.496 143.827 133.438 143.024 129.28C142.308 125.572 143.024 121.757 143.53 118.012C143.803 116.227 143.94 114.424 143.94 112.618C143.949 110.928 143.683 109.249 143.152 107.645C142.733 106.901 142.323 106.153 141.943 105.393C139.656 100.812 138.052 95.923 137.18 90.8794C136.702 88.1062 136.449 85.2876 135.777 82.5532C135.138 79.9503 134.089 77.6289 131.873 76.0038C130.016 74.6434 127.765 73.8696 126.154 72.172C124.359 70.2771 123.052 67.2528 120.54 66.2952C118.177 65.3933 115.497 65.8249 113.081 65.7794C108.693 65.6985 104.183 65.2298 100.28 63.2237C99.041 62.588 97.8959 61.7841 96.8773 60.8349C96.3856 60.3779 95.9275 59.8861 95.5067 59.3632C95.2636 59.0648 94.8602 58.1511 94.4939 58.0146C93.3478 57.6032 92.8398 60.6697 92.5545 61.3643C91.8894 62.9603 91.0397 64.4732 90.0226 65.8721C88.2739 68.2997 86.1404 70.3462 84.0372 72.4602C82.2126 74.3011 81.5289 75.8841 81.3028 78.4651C81.0968 80.8016 80.0841 83.1061 78.9835 85.1493C77.9016 87.1588 76.4381 88.8969 75.5807 91.0075C75.1616 92.0328 74.823 93.089 74.5679 94.1667C74.3299 95.1917 74.362 96.1627 74.1645 97.1641C74.0632 97.6698 73.7645 98.1756 73.2868 98.3897C72.8091 98.6038 72.1575 98.4217 71.9567 97.9429H71.9398C70.3177 95.6839 66.7292 95.367 64.469 97.0157Z" fill="#C991E5"/>
<path d="M97.122 217.399C107.51 222.134 118.863 224.374 130.273 223.939C129.066 200.54 127.858 177.14 126.651 153.74C123.529 156.761 119.916 159.23 115.964 161.039C112.018 162.821 106.082 162.516 102.203 160.785C98.3821 159.049 94.8924 156.664 91.8895 153.735C90.8913 173.065 89.8943 192.396 88.8984 211.727C91.005 214.217 94.1006 216.017 97.122 217.399Z" fill="white"/>
<path d="M97.122 217.399C94.1006 216.017 91.005 214.217 88.8984 211.74C88.6453 216.666 88.3909 221.593 88.1355 226.521H130.406C130.362 225.659 130.318 224.798 130.273 223.939C118.863 224.374 107.51 222.134 97.122 217.399Z" fill="#EDEDED"/>
<path d="M126.865 98.0559C125.771 99.4045 125.684 101.441 126.558 102.945C127.432 104.448 129.161 105.372 130.898 105.398C132.634 105.423 134.339 104.593 135.495 103.299C136.626 102.033 137.258 100.232 136.809 98.597C135.722 94.6185 128.958 95.4715 126.865 98.0559Z" fill="#F7A17C"/>
<path d="M89.8976 98.7066C90.9897 100.055 91.0792 102.093 90.2032 103.595C89.3271 105.097 87.6021 106.023 85.8652 106.048C84.1283 106.074 82.4269 105.239 81.2656 103.948C80.1347 102.683 79.5051 100.883 79.9524 99.246C81.0411 95.2743 87.8046 96.1222 89.8976 98.7066Z" fill="#F7A17C"/>
<path d="M108.667 96.4189C108.288 96.8741 107.982 97.4506 108.144 98.0019C108.278 98.4537 108.698 98.7909 109.157 99.0134C109.765 99.298 110.434 99.4283 111.104 99.3927C111.775 99.3571 112.426 99.1568 113 98.8094C114.059 98.1351 114.952 96.5706 114.575 95.3737C114.133 93.9745 111.929 94.401 110.862 94.8376C110.013 95.1797 109.26 95.7223 108.667 96.4189Z" fill="#F7A17C"/>
<path d="M130.808 82.1575C130.892 82.7846 130.579 83.4825 129.991 83.7202C128.958 84.1366 127.908 83.1386 126.993 82.8048C125.9 82.4109 124.776 82.1059 123.633 81.8928C122.282 81.6365 120.372 81.677 119.18 80.9605C118.599 80.6116 118.199 79.8597 118.476 79.2393C118.773 78.565 119.116 78.2986 119.826 78.1216C121.248 77.7642 123.287 78.275 124.691 78.6173C125.646 78.8743 126.582 79.1971 127.493 79.5832C128.29 79.8917 129.098 80.0738 129.805 80.6048C130.31 80.9892 130.725 81.5286 130.808 82.1575Z" fill="#5E2929"/>
<path d="M97.7752 79.2393C98.0503 79.8597 97.652 80.6116 97.0714 80.9605C95.8814 81.677 93.9639 81.6349 92.6203 81.8928C91.4762 82.1061 90.3512 82.4111 89.2562 82.8048C88.3431 83.142 87.2932 84.1366 86.2618 83.7202C85.6744 83.4825 85.3588 82.7846 85.4432 82.1575C85.5276 81.5303 85.9496 80.9858 86.456 80.6048C87.1632 80.0738 87.9751 79.8917 88.7667 79.5832C89.6775 79.1976 90.6137 78.8749 91.5687 78.6173C92.9714 78.2801 95.0121 77.7642 96.4316 78.1216C97.1338 78.2919 97.4798 78.5734 97.7752 79.2393Z" fill="#5E2929"/>
<path d="M92.1848 93.7234C90.4566 93.722 88.7825 93.1214 87.4485 92.0241C87.3514 91.9368 87.2918 91.8154 87.2822 91.6853C87.2726 91.5552 87.3137 91.4264 87.397 91.3259C87.4802 91.2253 87.5991 91.1608 87.7289 91.1458C87.8586 91.1307 87.9892 91.1664 88.0932 91.2452C89.3905 92.319 91.0599 92.8376 92.7382 92.6883C94.4164 92.539 95.9677 91.7338 97.0545 90.4478C97.0974 90.397 97.1499 90.3552 97.209 90.3246C97.268 90.2941 97.3326 90.2754 97.3989 90.2698C97.4652 90.2642 97.532 90.2716 97.5954 90.2918C97.6588 90.3119 97.7176 90.3443 97.7685 90.3871C97.8193 90.43 97.8613 90.4824 97.8919 90.5414C97.9224 90.6004 97.9411 90.6649 97.9467 90.7311C97.9524 90.7973 97.9449 90.864 97.9247 90.9273C97.9046 90.9907 97.8721 91.0494 97.8292 91.1002C96.566 92.5842 94.7715 93.5154 92.8296 93.6947C92.6135 93.7149 92.3992 93.7234 92.1848 93.7234Z" fill="#6A3650"/>
<path d="M124.066 93.7234C123.852 93.7234 123.638 93.7149 123.423 93.6947C121.481 93.5159 119.686 92.5846 118.422 91.1002C118.335 90.9976 118.293 90.8649 118.304 90.7311C118.316 90.5974 118.38 90.4737 118.483 90.3871C118.585 90.3006 118.718 90.2584 118.852 90.2698C118.986 90.2812 119.11 90.3452 119.197 90.4478C120.283 91.734 121.834 92.5396 123.513 92.6892C125.191 92.8389 126.86 92.3205 128.158 91.2469C128.261 91.1613 128.395 91.1202 128.528 91.1327C128.662 91.1452 128.785 91.2102 128.871 91.3135C128.957 91.4168 128.998 91.5498 128.986 91.6834C128.973 91.817 128.908 91.9401 128.804 92.0257C127.47 93.1225 125.795 93.7225 124.066 93.7234Z" fill="#6A3650"/>
<path d="M110.966 100.123C110.832 100.129 110.701 100.082 110.601 99.9918C110.502 99.9016 110.442 99.7755 110.436 99.6414C110.429 99.5073 110.476 99.3761 110.567 99.2766C110.657 99.1772 110.783 99.1177 110.917 99.1112C111.582 99.0467 112.215 98.7948 112.742 98.385C113.269 97.9751 113.668 97.4242 113.894 96.7964C114.119 96.1685 114.162 95.4896 114.016 94.8387C113.87 94.1878 113.542 93.5917 113.07 93.1198C112.791 92.8567 112.493 92.615 112.178 92.3966C111.892 92.1933 111.616 91.9755 111.351 91.7442C110.568 91.0151 110.011 90.0761 109.747 89.0395C109.483 88.0029 109.523 86.9123 109.863 85.8978C109.885 85.8352 109.919 85.7775 109.963 85.7281C110.008 85.6787 110.062 85.6385 110.122 85.6099C110.182 85.5812 110.247 85.5647 110.313 85.5611C110.38 85.5576 110.446 85.5672 110.509 85.5893C110.572 85.6115 110.629 85.6457 110.679 85.6902C110.728 85.7346 110.769 85.7883 110.797 85.8483C110.826 85.9082 110.843 85.9732 110.846 86.0396C110.85 86.1059 110.84 86.1723 110.818 86.235C110.541 87.061 110.508 87.9491 110.723 88.7933C110.938 89.6375 111.392 90.402 112.03 90.9957C112.259 91.2014 112.511 91.3868 112.778 91.5824C113.136 91.8306 113.475 92.1062 113.79 92.4067C114.398 93.0141 114.821 93.7815 115.009 94.6196C115.197 95.4577 115.143 96.3319 114.853 97.1404C114.562 97.9489 114.048 98.6583 113.37 99.186C112.691 99.7137 111.876 100.038 111.02 100.121L110.966 100.123Z" fill="#F28657"/>
<path d="M100.035 112.008C100.053 112.006 100.072 112.006 100.09 112.008C101.458 112.161 102.796 112.513 104.062 113.053C104.486 113.243 104.898 113.46 105.296 113.702C105.853 114.027 106.379 114.334 107.011 114.491C108.923 114.966 111.156 114.622 113.3 113.521L113.432 113.454C114.812 112.744 116.239 112.011 117.846 112.011C117.98 112.011 118.109 112.064 118.204 112.159C118.299 112.254 118.352 112.382 118.352 112.517C118.352 112.651 118.299 112.779 118.204 112.874C118.109 112.969 117.98 113.022 117.846 113.022C116.485 113.022 115.168 113.697 113.896 114.354L113.762 114.422C111.399 115.634 108.916 116.006 106.766 115.472C105.993 115.28 105.378 114.922 104.784 114.575C104.424 114.354 104.05 114.157 103.665 113.983C102.49 113.483 101.248 113.156 99.9788 113.012C99.8445 113.005 99.7186 112.945 99.6289 112.844C99.5392 112.744 99.4929 112.613 99.5003 112.479C99.5077 112.345 99.5681 112.219 99.6683 112.129C99.7685 112.04 99.9002 111.993 100.035 112.001L100.035 112.008Z" fill="#F28657"/>
<path d="M72.3145 108.371H72.2993C72.2328 108.368 72.1675 108.352 72.1072 108.324C72.0469 108.296 71.9928 108.256 71.948 108.207C71.9031 108.158 71.8684 108.1 71.8459 108.037C71.8233 107.975 71.8134 107.908 71.8165 107.842C71.8385 107.385 71.1295 106.999 70.8257 106.861H70.8071C70.1168 106.537 69.2542 106.136 69.0281 105.241C68.8728 104.634 69.0956 104.089 69.2914 103.607C69.3846 103.397 69.4591 103.18 69.5142 102.957C69.6661 102.215 69.1766 101.36 68.3883 101.011C67.649 100.674 66.6903 100.752 65.8261 101.203C65.707 101.265 65.5681 101.278 65.4399 101.238C65.3117 101.198 65.2047 101.108 65.1424 100.989C65.0802 100.87 65.0678 100.732 65.108 100.603C65.1482 100.475 65.2377 100.369 65.3568 100.306C66.4928 99.7131 67.7824 99.6321 68.8019 100.087C70.0223 100.632 70.7548 101.953 70.5067 103.161C70.4405 103.444 70.3478 103.722 70.2299 103.988C70.0729 104.374 69.9362 104.706 70.0088 105C70.1185 105.43 70.7126 105.708 71.2376 105.952L71.2544 105.961C72.6048 106.589 72.8529 107.365 72.8293 107.904C72.8194 108.033 72.7606 108.153 72.6648 108.24C72.5691 108.327 72.4438 108.374 72.3145 108.371Z" fill="#F28657"/>
<path d="M147.61 119.122C147.482 119.122 147.359 119.074 147.265 118.988C147.171 118.901 147.113 118.782 147.103 118.655C146.84 115.099 145.145 112.151 143.361 109.015L143.024 108.452C142.99 108.395 142.969 108.331 142.96 108.265C142.952 108.199 142.956 108.132 142.973 108.068C142.991 108.003 143.021 107.943 143.061 107.89C143.102 107.838 143.152 107.793 143.21 107.76C143.268 107.727 143.332 107.706 143.398 107.697C143.464 107.688 143.531 107.693 143.595 107.71C143.66 107.727 143.72 107.757 143.773 107.798C143.825 107.838 143.87 107.889 143.903 107.947L144.224 108.508C145.994 111.596 147.826 114.791 148.106 118.574C148.116 118.708 148.072 118.84 147.984 118.941C147.897 119.043 147.772 119.105 147.638 119.115L147.61 119.122Z" fill="#6A3650"/>
<path d="M139.862 140.472C136.716 140.472 133.58 140.039 130.533 139.618L120.334 138.207C120.201 138.188 120.081 138.118 120 138.011C119.918 137.904 119.883 137.769 119.901 137.636C119.92 137.503 119.99 137.383 120.097 137.302C120.205 137.221 120.34 137.185 120.473 137.204L130.673 138.618C134.1 139.093 137.642 139.584 141.138 139.439C145.041 139.27 148.342 138.331 150.955 136.629C151.067 136.568 151.197 136.552 151.321 136.582C151.444 136.613 151.551 136.689 151.621 136.796C151.69 136.902 151.718 137.03 151.697 137.155C151.676 137.281 151.609 137.394 151.509 137.472C148.741 139.276 145.263 140.275 141.18 140.444C140.743 140.463 140.303 140.472 139.862 140.472Z" fill="#6A3650"/>
<path d="M85.9715 227C85.8573 227 85.7463 226.961 85.6569 226.89C85.5674 226.819 85.5046 226.72 85.4787 226.609L72.3972 170.2C72.3788 170.134 72.374 170.065 72.383 169.998C72.392 169.93 72.4147 169.865 72.4496 169.806C72.4845 169.747 72.531 169.696 72.5862 169.656C72.6415 169.616 72.7043 169.587 72.7709 169.572C72.8376 169.556 72.9067 169.554 72.974 169.566C73.0413 169.578 73.1055 169.604 73.1627 169.641C73.2199 169.679 73.2689 169.728 73.3068 169.784C73.3446 169.841 73.3705 169.905 73.383 169.973L86.4779 226.38C86.4929 226.444 86.495 226.511 86.484 226.577C86.4731 226.643 86.4493 226.705 86.414 226.762C86.3787 226.818 86.3327 226.867 86.2785 226.906C86.2243 226.944 86.163 226.972 86.0981 226.987C86.0568 226.997 86.0142 227.002 85.9715 227Z" fill="#CBC9B7"/>
<path d="M75.4304 181.564C75.3132 181.564 75.1999 181.522 75.1097 181.448L59.8845 168.941C59.4575 168.588 59.0102 168.209 58.5342 167.805C54.8208 164.64 49.7215 160.306 45.0898 162.671C43.6302 163.423 42.5175 164.708 41.984 166.259C41.9374 166.381 41.8452 166.48 41.7267 166.536C41.6082 166.592 41.4727 166.6 41.3486 166.558C41.2245 166.516 41.1215 166.428 41.0612 166.312C41.0009 166.195 40.988 166.06 41.0253 165.935C41.6437 164.134 42.9348 162.642 44.629 161.769C49.8616 159.097 55.2546 163.686 59.1908 167.036C59.6617 167.435 60.1057 167.813 60.526 168.159L75.7511 180.667C75.8319 180.733 75.8903 180.823 75.9181 180.924C75.946 181.024 75.942 181.131 75.9067 181.229C75.8713 181.328 75.8064 181.412 75.7209 181.472C75.6353 181.532 75.5332 181.564 75.4287 181.564H75.4304Z" fill="#CBC9B7"/>
<path d="M132.606 226.836C132.567 226.837 132.528 226.833 132.491 226.823C132.426 226.808 132.365 226.781 132.311 226.742C132.256 226.703 132.21 226.655 132.175 226.598C132.14 226.542 132.116 226.479 132.105 226.413C132.094 226.348 132.096 226.281 132.111 226.216L145.155 169.974C145.168 169.907 145.194 169.843 145.232 169.786C145.269 169.729 145.318 169.681 145.376 169.643C145.433 169.606 145.497 169.58 145.564 169.568C145.632 169.556 145.701 169.558 145.767 169.573C145.834 169.589 145.897 169.617 145.952 169.658C146.007 169.698 146.054 169.749 146.089 169.808C146.124 169.866 146.146 169.932 146.155 169.999C146.164 170.067 146.16 170.136 146.141 170.202L133.099 226.449C133.072 226.559 133.009 226.658 132.919 226.728C132.83 226.798 132.72 226.837 132.606 226.836Z" fill="#CBC9B7"/>
<path d="M143.147 181.535C143.042 181.536 142.94 181.504 142.855 181.444C142.769 181.384 142.704 181.299 142.669 181.201C142.634 181.102 142.63 180.996 142.657 180.895C142.685 180.794 142.744 180.705 142.824 180.639L158.016 168.164C158.436 167.826 158.88 167.44 159.351 167.041C163.279 163.686 168.68 159.097 173.913 161.769C175.174 162.423 176.222 163.423 176.934 164.65C177.001 164.767 177.019 164.905 176.985 165.034C176.95 165.164 176.865 165.275 176.748 165.342C176.632 165.409 176.494 165.427 176.364 165.392C176.234 165.357 176.124 165.272 176.056 165.156C175.443 164.097 174.54 163.234 173.452 162.671C168.82 160.311 163.728 164.64 160.008 167.805C159.535 168.209 159.085 168.588 158.657 168.941L143.466 181.416C143.377 181.491 143.264 181.534 143.147 181.535Z" fill="#CBC9B7"/>
<path d="M85.0668 109.312C85.1338 109.511 85.2584 109.686 85.4249 109.815C85.5914 109.943 85.7923 110.02 86.0022 110.034C86.2121 110.049 86.4217 110.001 86.6045 109.897C86.7872 109.793 86.935 109.637 87.0291 109.449C87.1232 109.261 87.1595 109.049 87.1333 108.841C87.1071 108.632 87.0196 108.436 86.8819 108.277C86.7442 108.118 86.5624 108.004 86.3596 107.948C86.1567 107.892 85.9418 107.897 85.742 107.963C85.6089 108.008 85.4859 108.078 85.38 108.169C85.274 108.261 85.1872 108.373 85.1245 108.498C85.0618 108.623 85.0244 108.76 85.0145 108.899C85.0046 109.039 85.0224 109.179 85.0668 109.312Z" fill="white"/>
</g>
</g>
</svg>
